  0
SECTION
  2
HEADER
  9
$ACADVER
  1
AC1027
  9
$ACADMAINTVER
 70
105
  9
$DWGCODEPAGE
  3
ANSI_1252
  9
$LASTSAVEDBY
  1
ezdxf
  9
$REQUIREDVERSIONS
160
0
  9
$INSBASE
 10
0.0
 20
0.0
 30
0.0
  9
$EXTMIN
 10
1e+20
 20
1e+20
 30
1e+20
  9
$EXTMAX
 10
-1e+20
 20
-1e+20
 30
-1e+20
  9
$LIMMIN
 10
0.0
 20
0.0
  9
$LIMMAX
 10
420.0
 20
297.0
  9
$ORTHOMODE
 70
0
  9
$REGENMODE
 70
1
  9
$FILLMODE
 70
1
  9
$QTEXTMODE
 70
0
  9
$MIRRTEXT
 70
1
  9
$LTSCALE
 40
1.0
  9
$ATTMODE
 70
1
  9
$TEXTSIZE
 40
2.5
  9
$TRACEWID
 40
1.0
  9
$TEXTSTYLE
  7
Standard
  9
$CLAYER
  8
0
  9
$CELTYPE
  6
ByLayer
  9
$CECOLOR
 62
256
  9
$CELTSCALE
 40
1.0
  9
$DISPSILH
 70
0
  9
$DIMSCALE
 40
1.0
  9
$DIMASZ
 40
2.5
  9
$DIMEXO
 40
0.625
  9
$DIMDLI
 40
3.75
  9
$DIMRND
 40
0.0
  9
$DIMDLE
 40
0.0
  9
$DIMEXE
 40
1.25
  9
$DIMTP
 40
0.0
  9
$DIMTM
 40
0.0
  9
$DIMTXT
 40
2.5
  9
$DIMCEN
 40
2.5
  9
$DIMTSZ
 40
0.0
  9
$DIMTOL
 70
0
  9
$DIMLIM
 70
0
  9
$DIMTIH
 70
0
  9
$DIMTOH
 70
0
  9
$DIMSE1
 70
0
  9
$DIMSE2
 70
0
  9
$DIMTAD
 70
1
  9
$DIMZIN
 70
8
  9
$DIMBLK
  1

  9
$DIMASO
 70
1
  9
$DIMSHO
 70
1
  9
$DIMPOST
  1

  9
$DIMAPOST
  1

  9
$DIMALT
 70
0
  9
$DIMALTD
 70
3
  9
$DIMALTF
 40
0.03937007874
  9
$DIMLFAC
 40
1.0
  9
$DIMTOFL
 70
1
  9
$DIMTVP
 40
0.0
  9
$DIMTIX
 70
0
  9
$DIMSOXD
 70
0
  9
$DIMSAH
 70
0
  9
$DIMBLK1
  1

  9
$DIMBLK2
  1

  9
$DIMSTYLE
  2
ISO-25
  9
$DIMCLRD
 70
0
  9
$DIMCLRE
 70
0
  9
$DIMCLRT
 70
0
  9
$DIMTFAC
 40
1.0
  9
$DIMGAP
 40
0.625
  9
$DIMJUST
 70
0
  9
$DIMSD1
 70
0
  9
$DIMSD2
 70
0
  9
$DIMTOLJ
 70
0
  9
$DIMTZIN
 70
8
  9
$DIMALTZ
 70
0
  9
$DIMALTTZ
 70
0
  9
$DIMUPT
 70
0
  9
$DIMDEC
 70
2
  9
$DIMTDEC
 70
2
  9
$DIMALTU
 70
2
  9
$DIMALTTD
 70
3
  9
$DIMTXSTY
  7
Standard
  9
$DIMAUNIT
 70
0
  9
$DIMADEC
 70
0
  9
$DIMALTRND
 40
0.0
  9
$DIMAZIN
 70
0
  9
$DIMDSEP
 70
44
  9
$DIMATFIT
 70
3
  9
$DIMFRAC
 70
0
  9
$DIMLDRBLK
  1

  9
$DIMLUNIT
 70
2
  9
$DIMLWD
 70
-2
  9
$DIMLWE
 70
-2
  9
$DIMTMOVE
 70
0
  9
$DIMFXL
 40
1.0
  9
$DIMFXLON
 70
0
  9
$DIMJOGANG
 40
0.785398163397
  9
$DIMTFILL
 70
0
  9
$DIMTFILLCLR
 70
0
  9
$DIMARCSYM
 70
0
  9
$DIMLTYPE
  6

  9
$DIMLTEX1
  6

  9
$DIMLTEX2
  6

  9
$DIMTXTDIRECTION
 70
0
  9
$LUNITS
 70
2
  9
$LUPREC
 70
4
  9
$SKETCHINC
 40
1.0
  9
$FILLETRAD
 40
10.0
  9
$AUNITS
 70
0
  9
$AUPREC
 70
2
  9
$MENU
  1
.
  9
$ELEVATION
 40
0.0
  9
$PELEVATION
 40
0.0
  9
$THICKNESS
 40
0.0
  9
$LIMCHECK
 70
0
  9
$CHAMFERA
 40
0.0
  9
$CHAMFERB
 40
0.0
  9
$CHAMFERC
 40
0.0
  9
$CHAMFERD
 40
0.0
  9
$SKPOLY
 70
0
  9
$TDCREATE
 40
2460765.046886574
  9
$TDUCREATE
 40
2458532.153996898
  9
$TDUPDATE
 40
2460765.046886574
  9
$TDUUPDATE
 40
2458532.1544311
  9
$TDINDWG
 40
0.0
  9
$TDUSRTIMER
 40
0.0
  9
$USRTIMER
 70
1
  9
$ANGBASE
 50
0.0
  9
$ANGDIR
 70
0
  9
$PDMODE
 70
0
  9
$PDSIZE
 40
0.0
  9
$PLINEWID
 40
0.0
  9
$SPLFRAME
 70
0
  9
$SPLINETYPE
 70
6
  9
$SPLINESEGS
 70
8
  9
$HANDSEED
  5
223
  9
$SURFTAB1
 70
6
  9
$SURFTAB2
 70
6
  9
$SURFTYPE
 70
6
  9
$SURFU
 70
6
  9
$SURFV
 70
6
  9
$UCSBASE
  2

  9
$UCSNAME
  2

  9
$UCSORG
 10
0.0
 20
0.0
 30
0.0
  9
$UCSXDIR
 10
1.0
 20
0.0
 30
0.0
  9
$UCSYDIR
 10
0.0
 20
1.0
 30
0.0
  9
$UCSORTHOREF
  2

  9
$UCSORTHOVIEW
 70
0
  9
$UCSORGTOP
 10
0.0
 20
0.0
 30
0.0
  9
$UCSORGBOTTOM
 10
0.0
 20
0.0
 30
0.0
  9
$UCSORGLEFT
 10
0.0
 20
0.0
 30
0.0
  9
$UCSORGRIGHT
 10
0.0
 20
0.0
 30
0.0
  9
$UCSORGFRONT
 10
0.0
 20
0.0
 30
0.0
  9
$UCSORGBACK
 10
0.0
 20
0.0
 30
0.0
  9
$PUCSBASE
  2

  9
$PUCSNAME
  2

  9
$PUCSORG
 10
0.0
 20
0.0
 30
0.0
  9
$PUCSXDIR
 10
1.0
 20
0.0
 30
0.0
  9
$PUCSYDIR
 10
0.0
 20
1.0
 30
0.0
  9
$PUCSORTHOREF
  2

  9
$PUCSORTHOVIEW
 70
0
  9
$PUCSORGTOP
 10
0.0
 20
0.0
 30
0.0
  9
$PUCSORGBOTTOM
 10
0.0
 20
0.0
 30
0.0
  9
$PUCSORGLEFT
 10
0.0
 20
0.0
 30
0.0
  9
$PUCSORGRIGHT
 10
0.0
 20
0.0
 30
0.0
  9
$PUCSORGFRONT
 10
0.0
 20
0.0
 30
0.0
  9
$PUCSORGBACK
 10
0.0
 20
0.0
 30
0.0
  9
$USERI1
 70
0
  9
$USERI2
 70
0
  9
$USERI3
 70
0
  9
$USERI4
 70
0
  9
$USERI5
 70
0
  9
$USERR1
 40
0.0
  9
$USERR2
 40
0.0
  9
$USERR3
 40
0.0
  9
$USERR4
 40
0.0
  9
$USERR5
 40
0.0
  9
$WORLDVIEW
 70
1
  9
$SHADEDGE
 70
3
  9
$SHADEDIF
 70
70
  9
$TILEMODE
 70
1
  9
$MAXACTVP
 70
64
  9
$PINSBASE
 10
0.0
 20
0.0
 30
0.0
  9
$PLIMCHECK
 70
0
  9
$PEXTMIN
 10
1e+20
 20
1e+20
 30
1e+20
  9
$PEXTMAX
 10
-1e+20
 20
-1e+20
 30
-1e+20
  9
$PLIMMIN
 10
0.0
 20
0.0
  9
$PLIMMAX
 10
420.0
 20
297.0
  9
$UNITMODE
 70
0
  9
$VISRETAIN
 70
1
  9
$PLINEGEN
 70
0
  9
$PSLTSCALE
 70
1
  9
$TREEDEPTH
 70
3020
  9
$CMLSTYLE
  2
Standard
  9
$CMLJUST
 70
0
  9
$CMLSCALE
 40
20.0
  9
$PROXYGRAPHICS
 70
1
  9
$MEASUREMENT
 70
1
  9
$CELWEIGHT
370
-1
  9
$ENDCAPS
280
0
  9
$JOINSTYLE
280
0
  9
$LWDISPLAY
290
0
  9
$INSUNITS
 70
6
  9
$HYPERLINKBASE
  1

  9
$STYLESHEET
  1

  9
$XEDIT
290
1
  9
$CEPSNTYPE
380
0
  9
$PSTYLEMODE
290
1
  9
$FINGERPRINTGUID
  2
{06C0FAD2-7249-44B9-A0FD-8D886F8CA15D}
  9
$VERSIONGUID
  2
{015AEBDB-A34E-468B-963D-7B6E16EA2BB9}
  9
$EXTNAMES
290
1
  9
$PSVPSCALE
 40
0.0
  9
$OLESTARTUP
290
0
  9
$SORTENTS
280
127
  9
$INDEXCTL
280
0
  9
$HIDETEXT
280
1
  9
$XCLIPFRAME
280
1
  9
$HALOGAP
280
0
  9
$OBSCOLOR
 70
257
  9
$OBSLTYPE
280
0
  9
$INTERSECTIONDISPLAY
280
0
  9
$INTERSECTIONCOLOR
 70
257
  9
$DIMASSOC
280
2
  9
$PROJECTNAME
  1

  9
$CAMERADISPLAY
290
0
  9
$LENSLENGTH
 40
50.0
  9
$CAMERAHEIGHT
 40
0.0
  9
$STEPSPERSEC
 40
24.0
  9
$STEPSIZE
 40
100.0
  9
$3DDWFPREC
 40
2.0
  9
$PSOLWIDTH
 40
0.005
  9
$PSOLHEIGHT
 40
0.08
  9
$LOFTANG1
 40
1.570796326795
  9
$LOFTANG2
 40
1.570796326795
  9
$LOFTMAG1
 40
0.0
  9
$LOFTMAG2
 40
0.0
  9
$LOFTPARAM
 70
7
  9
$LOFTNORMALS
280
1
  9
$LATITUDE
 40
37.795
  9
$LONGITUDE
 40
-122.394
  9
$NORTHDIRECTION
 40
0.0
  9
$TIMEZONE
 70
-8000
  9
$LIGHTGLYPHDISPLAY
280
1
  9
$TILEMODELIGHTSYNCH
280
1
  9
$CMATERIAL
347
20
  9
$SOLIDHIST
280
0
  9
$SHOWHIST
280
1
  9
$DWFFRAME
280
2
  9
$DGNFRAME
280
2
  9
$REALWORLDSCALE
290
1
  9
$INTERFERECOLOR
 62
256
  9
$CSHADOW
280
0
  9
$SHADOWPLANELOCATION
 40
0.0
  0
ENDSEC
  0
SECTION
  2
CLASSES
  0
CLASS
  1
ACDBDICTIONARYWDFLT
  2
AcDbDictionaryWithDefault
  3
ObjectDBX Classes
 90
0
 91
0
280
0
281
0
  0
CLASS
  1
SUN
  2
AcDbSun
  3
SCENEOE
 90
1153
 91
0
280
0
281
0
  0
CLASS
  1
VISUALSTYLE
  2
AcDbVisualStyle
  3
ObjectDBX Classes
 90
4095
 91
0
280
0
281
0
  0
CLASS
  1
MATERIAL
  2
AcDbMaterial
  3
ObjectDBX Classes
 90
1153
 91
0
280
0
281
0
  0
CLASS
  1
SCALE
  2
AcDbScale
  3
ObjectDBX Classes
 90
1153
 91
0
280
0
281
0
  0
CLASS
  1
TABLESTYLE
  2
AcDbTableStyle
  3
ObjectDBX Classes
 90
4095
 91
0
280
0
281
0
  0
CLASS
  1
MLEADERSTYLE
  2
AcDbMLeaderStyle
  3
ACDB_MLEADERSTYLE_CLASS
 90
4095
 91
0
280
0
281
0
  0
CLASS
  1
DICTIONARYVAR
  2
AcDbDictionaryVar
  3
ObjectDBX Classes
 90
0
 91
0
280
0
281
0
  0
CLASS
  1
CELLSTYLEMAP
  2
AcDbCellStyleMap
  3
ObjectDBX Classes
 90
1152
 91
0
280
0
281
0
  0
CLASS
  1
MENTALRAYRENDERSETTINGS
  2
AcDbMentalRayRenderSettings
  3
SCENEOE
 90
1024
 91
0
280
0
281
0
  0
CLASS
  1
ACDBDETAILVIEWSTYLE
  2
AcDbDetailViewStyle
  3
ObjectDBX Classes
 90
1025
 91
0
280
0
281
0
  0
CLASS
  1
ACDBSECTIONVIEWSTYLE
  2
AcDbSectionViewStyle
  3
ObjectDBX Classes
 90
1025
 91
0
280
0
281
0
  0
CLASS
  1
RASTERVARIABLES
  2
AcDbRasterVariables
  3
ISM
 90
0
 91
0
280
0
281
0
  0
CLASS
  1
ACDBPLACEHOLDER
  2
AcDbPlaceHolder
  3
ObjectDBX Classes
 90
0
 91
0
280
0
281
0
  0
CLASS
  1
LAYOUT
  2
AcDbLayout
  3
ObjectDBX Classes
 90
0
 91
0
280
0
281
0
  0
ENDSEC
  0
SECTION
  2
TABLES
  0
TABLE
  2
VPORT
  5
8
330
0
100
AcDbSymbolTable
 70
1
  0
VPORT
  5
23
330
8
100
AcDbSymbolTableRecord
100
AcDbViewportTableRecord
  2
*Active
 70
0
 10
0.0
 20
0.0
 11
1.0
 21
1.0
 12
0.0
 22
0.0
 13
0.0
 23
0.0
 14
0.5
 24
0.5
 15
0.5
 25
0.5
 16
0.0
 26
0.0
 36
1.0
 17
0.0
 27
0.0
 37
0.0
 40
1000.0
 41
1.34
 42
50.0
 43
0.0
 44
0.0
 50
0.0
 51
0.0
 71
0
 72
1000
 73
1
 74
3
 75
0
 76
0
 77
0
 78
0
281
0
 65
0
146
0.0
  0
ENDTAB
  0
TABLE
  2
LTYPE
  5
2
330
0
100
AcDbSymbolTable
 70
3
  0
LTYPE
  5
24
330
2
100
AcDbSymbolTableRecord
100
AcDbLinetypeTableRecord
  2
ByBlock
 70
0
  3

 72
65
 73
0
 40
0.0
  0
LTYPE
  5
25
330
2
100
AcDbSymbolTableRecord
100
AcDbLinetypeTableRecord
  2
ByLayer
 70
0
  3

 72
65
 73
0
 40
0.0
  0
LTYPE
  5
26
330
2
100
AcDbSymbolTableRecord
100
AcDbLinetypeTableRecord
  2
Continuous
 70
0
  3

 72
65
 73
0
 40
0.0
  0
ENDTAB
  0
TABLE
  2
LAYER
  5
1
330
0
100
AcDbSymbolTable
 70
2
  0
LAYER
  5
27
330
1
100
AcDbSymbolTableRecord
100
AcDbLayerTableRecord
  2
0
 70
0
 62
7
  6
Continuous
370
-3
390
13
347
21
  0
LAYER
  5
28
330
1
100
AcDbSymbolTableRecord
100
AcDbLayerTableRecord
  2
Defpoints
 70
0
 62
7
  6
Continuous
290
0
370
-3
390
13
347
21
  0
ENDTAB
  0
TABLE
  2
STYLE
  5
5
330
0
100
AcDbSymbolTable
 70
1
  0
STYLE
  5
29
330
5
100
AcDbSymbolTableRecord
100
AcDbTextStyleTableRecord
  2
Standard
 70
0
 40
0.0
 41
1.0
 50
0.0
 71
0
 42
2.5
  3
txt
  4

  0
ENDTAB
  0
TABLE
  2
VIEW
  5
7
330
0
100
AcDbSymbolTable
 70
0
  0
ENDTAB
  0
TABLE
  2
UCS
  5
6
330
0
100
AcDbSymbolTable
 70
0
  0
ENDTAB
  0
TABLE
  2
APPID
  5
3
330
0
100
AcDbSymbolTable
 70
3
  0
APPID
  5
2A
330
3
100
AcDbSymbolTableRecord
100
AcDbRegAppTableRecord
  2
ACAD
 70
0
  0
APPID
  5
220
330
3
100
AcDbSymbolTableRecord
100
AcDbRegAppTableRecord
  2
HATCHBACKGROUNDCOLOR
 70
0
  0
APPID
  5
221
330
3
100
AcDbSymbolTableRecord
100
AcDbRegAppTableRecord
  2
EZDXF
 70
0
  0
ENDTAB
  0
TABLE
  2
DIMSTYLE
  5
4
330
0
100
AcDbSymbolTable
 70
1
100
AcDbDimStyleTable
  0
DIMSTYLE
105
2B
330
4
100
AcDbSymbolTableRecord
100
AcDbDimStyleTableRecord
  2
Standard
 70
0
 40
1.0
 41
2.5
 42
0.625
 43
3.75
 44
1.25
 45
0.0
 46
0.0
 47
0.0
 48
0.0
 49
2.5
140
2.5
141
2.5
142
0.0
143
0.03937007874
144
1.0
145
0.0
146
1.0
147
0.625
148
0.0
 69
0
 70
0
 71
0
 72
0
 73
0
 74
0
 75
0
 76
0
 77
1
 78
8
 79
3
170
0
171
3
172
1
173
0
174
0
175
0
176
0
177
0
178
0
179
2
271
2
272
2
273
2
274
3
275
0
276
0
277
2
278
44
279
0
280
0
281
0
282
0
283
0
284
8
285
0
286
0
288
0
289
3
290
0
371
-2
372
-2
  0
ENDTAB
  0
TABLE
  2
BLOCK_RECORD
  5
9
330
0
100
AcDbSymbolTable
 70
2
  0
BLOCK_RECORD
  5
17
330
9
100
AcDbSymbolTableRecord
100
AcDbBlockTableRecord
  2
*Model_Space
340
1A
 70
0
280
1
281
0
  0
BLOCK_RECORD
  5
1B
330
9
100
AcDbSymbolTableRecord
100
AcDbBlockTableRecord
  2
*Paper_Space
340
1E
 70
0
280
1
281
0
  0
ENDTAB
  0
ENDSEC
  0
SECTION
  2
BLOCKS
  0
BLOCK
  5
18
330
17
100
AcDbEntity
  8
0
100
AcDbBlockBegin
  2
*Model_Space
 70
0
 10
0.0
 20
0.0
 30
0.0
  3
*Model_Space
  1

  0
ENDBLK
  5
19
330
17
100
AcDbEntity
  8
0
100
AcDbBlockEnd
  0
BLOCK
  5
1C
330
1B
100
AcDbEntity
  8
0
100
AcDbBlockBegin
  2
*Paper_Space
 70
0
 10
0.0
 20
0.0
 30
0.0
  3
*Paper_Space
  1

  0
ENDBLK
  5
1D
330
1B
100
AcDbEntity
  8
0
100
AcDbBlockEnd
  0
ENDSEC
  0
SECTION
  2
ENTITIES
  0
LWPOLYLINE
  5
2F
330
17
100
AcDbEntity
  8
0
 62
7
100
AcDbPolyline
 90
4
 70
1
 10
2347.0
 20
-5.0
 10
2377.0
 20
-5.0
 10
2377.0
 20
5.0
 10
2347.0
 20
5.0
  0
TEXT
  5
30
330
17
100
AcDbEntity
  8
0
 62
5
100
AcDbText
 10
2362.0
 20
0.0
 30
0.0
 40
2.5
  1
Calculus
 72
1
 11
2362.0
 21
0.0
 31
0.0
100
AcDbText
 73
2
  0
LWPOLYLINE
  5
31
330
17
100
AcDbEntity
  8
0
 62
7
100
AcDbPolyline
 90
4
 70
1
 10
235.0
 20
-35.0
 10
265.0
 20
-35.0
 10
265.0
 20
-25.0
 10
235.0
 20
-25.0
  0
TEXT
  5
32
330
17
100
AcDbEntity
  8
0
 62
5
100
AcDbText
 10
250.0
 20
-30.0
 30
0.0
 40
2.5
  1
Definitions
 72
1
 11
250.0
 21
-30.0
 31
0.0
100
AcDbText
 73
2
  0
LWPOLYLINE
  5
33
330
17
100
AcDbEntity
  8
0
 62
7
100
AcDbPolyline
 90
4
 70
1
 10
35.0
 20
-65.0
 10
65.0
 20
-65.0
 10
65.0
 20
-55.0
 10
35.0
 20
-55.0
  0
TEXT
  5
34
330
17
100
AcDbEntity
  8
0
 62
5
100
AcDbText
 10
50.0
 20
-60.0
 30
0.0
 40
2.5
  1
Calculus - Mathematical study of change
 72
1
 11
50.0
 21
-60.0
 31
0.0
100
AcDbText
 73
2
  0
LWPOLYLINE
  5
35
330
17
100
AcDbEntity
  8
0
 62
7
100
AcDbPolyline
 90
4
 70
1
 10
-15.0
 20
-95.0
 10
15.0
 20
-95.0
 10
15.0
 20
-85.0
 10
-15.0
 20
-85.0
  0
TEXT
  5
36
330
17
100
AcDbEntity
  8
0
 62
5
100
AcDbText
 10
0.0
 20
-90.0
 30
0.0
 40
2.5
  1
Sentence 1 - Calculus includes differentiation and integration
 72
1
 11
0.0
 21
-90.0
 31
0.0
100
AcDbText
 73
2
  0
LWPOLYLINE
  5
37
330
17
100
AcDbEntity
  8
0
 62
7
100
AcDbPolyline
 90
4
 70
1
 10
35.0
 20
-95.0
 10
65.0
 20
-95.0
 10
65.0
 20
-85.0
 10
35.0
 20
-85.0
  0
TEXT
  5
38
330
17
100
AcDbEntity
  8
0
 62
5
100
AcDbText
 10
50.0
 20
-90.0
 30
0.0
 40
2.5
  1
Sentence 2 - It extends to multivariable functions and optimization
 72
1
 11
50.0
 21
-90.0
 31
0.0
100
AcDbText
 73
2
  0
LWPOLYLINE
  5
39
330
17
100
AcDbEntity
  8
0
 62
7
100
AcDbPolyline
 90
4
 70
1
 10
85.0
 20
-95.0
 10
115.0
 20
-95.0
 10
115.0
 20
-85.0
 10
85.0
 20
-85.0
  0
TEXT
  5
3A
330
17
100
AcDbEntity
  8
0
 62
5
100
AcDbText
 10
100.0
 20
-90.0
 30
0.0
 40
2.5
  1
Sentence 3 - Core tools include limits, functions, and series expansions
 72
1
 11
100.0
 21
-90.0
 31
0.0
100
AcDbText
 73
2
  0
LWPOLYLINE
  5
3B
330
17
100
AcDbEntity
  8
0
 62
7
100
AcDbPolyline
 90
4
 70
1
 10
185.0
 20
-65.0
 10
215.0
 20
-65.0
 10
215.0
 20
-55.0
 10
185.0
 20
-55.0
  0
TEXT
  5
3C
330
17
100
AcDbEntity
  8
0
 62
5
100
AcDbText
 10
200.0
 20
-60.0
 30
0.0
 40
2.5
  1
Function - Relationship between variables
 72
1
 11
200.0
 21
-60.0
 31
0.0
100
AcDbText
 73
2
  0
LWPOLYLINE
  5
3D
330
17
100
AcDbEntity
  8
0
 62
7
100
AcDbPolyline
 90
4
 70
1
 10
135.0
 20
-95.0
 10
165.0
 20
-95.0
 10
165.0
 20
-85.0
 10
135.0
 20
-85.0
  0
TEXT
  5
3E
330
17
100
AcDbEntity
  8
0
 62
5
100
AcDbText
 10
150.0
 20
-90.0
 30
0.0
 40
2.5
  1
Sentence 1 - A function formalizes how one variable depends on another
 72
1
 11
150.0
 21
-90.0
 31
0.0
100
AcDbText
 73
2
  0
LWPOLYLINE
  5
3F
330
17
100
AcDbEntity
  8
0
 62
7
100
AcDbPolyline
 90
4
 70
1
 10
185.0
 20
-95.0
 10
215.0
 20
-95.0
 10
215.0
 20
-85.0
 10
185.0
 20
-85.0
  0
TEXT
  5
40
330
17
100
AcDbEntity
  8
0
 62
5
100
AcDbText
 10
200.0
 20
-90.0
 30
0.0
 40
2.5
  1
Sentence 2 - y = f(x) expresses y as a function of x
 72
1
 11
200.0
 21
-90.0
 31
0.0
100
AcDbText
 73
2
  0
LWPOLYLINE
  5
41
330
17
100
AcDbEntity
  8
0
 62
7
100
AcDbPolyline
 90
4
 70
1
 10
235.0
 20
-95.0
 10
265.0
 20
-95.0
 10
265.0
 20
-85.0
 10
235.0
 20
-85.0
  0
TEXT
  5
42
330
17
100
AcDbEntity
  8
0
 62
5
100
AcDbText
 10
250.0
 20
-90.0
 30
0.0
 40
2.5
  1
Sentence 3 - x is the independent variable, y is the dependent variable
 72
1
 11
250.0
 21
-90.0
 31
0.0
100
AcDbText
 73
2
  0
LWPOLYLINE
  5
43
330
17
100
AcDbEntity
  8
0
 62
7
100
AcDbPolyline
 90
4
 70
1
 10
310.0
 20
-65.0
 10
340.0
 20
-65.0
 10
340.0
 20
-55.0
 10
310.0
 20
-55.0
  0
TEXT
  5
44
330
17
100
AcDbEntity
  8
0
 62
5
100
AcDbText
 10
325.0
 20
-60.0
 30
0.0
 40
2.5
  1
Differentiation - Rate of change of a function
 72
1
 11
325.0
 21
-60.0
 31
0.0
100
AcDbText
 73
2
  0
LWPOLYLINE
  5
45
330
17
100
AcDbEntity
  8
0
 62
7
100
AcDbPolyline
 90
4
 70
1
 10
285.0
 20
-95.0
 10
315.0
 20
-95.0
 10
315.0
 20
-85.0
 10
285.0
 20
-85.0
  0
TEXT
  5
46
330
17
100
AcDbEntity
  8
0
 62
5
100
AcDbText
 10
300.0
 20
-90.0
 30
0.0
 40
2.5
  1
Sentence 1 - It measures how a function value changes with respect to its input
 72
1
 11
300.0
 21
-90.0
 31
0.0
100
AcDbText
 73
2
  0
LWPOLYLINE
  5
47
330
17
100
AcDbEntity
  8
0
 62
7
100
AcDbPolyline
 90
4
 70
1
 10
335.0
 20
-95.0
 10
365.0
 20
-95.0
 10
365.0
 20
-85.0
 10
335.0
 20
-85.0
  0
TEXT
  5
48
330
17
100
AcDbEntity
  8
0
 62
5
100
AcDbText
 10
350.0
 20
-90.0
 30
0.0
 40
2.5
  1
Sentence 2 - The result is the derivative of the function
 72
1
 11
350.0
 21
-90.0
 31
0.0
100
AcDbText
 73
2
  0
LWPOLYLINE
  5
49
330
17
100
AcDbEntity
  8
0
 62
7
100
AcDbPolyline
 90
4
 70
1
 10
435.0
 20
-65.0
 10
465.0
 20
-65.0
 10
465.0
 20
-55.0
 10
435.0
 20
-55.0
  0
TEXT
  5
4A
330
17
100
AcDbEntity
  8
0
 62
5
100
AcDbText
 10
450.0
 20
-60.0
 30
0.0
 40
2.5
  1
Integration - Accumulation of quantities
 72
1
 11
450.0
 21
-60.0
 31
0.0
100
AcDbText
 73
2
  0
LWPOLYLINE
  5
4B
330
17
100
AcDbEntity
  8
0
 62
7
100
AcDbPolyline
 90
4
 70
1
 10
385.0
 20
-95.0
 10
415.0
 20
-95.0
 10
415.0
 20
-85.0
 10
385.0
 20
-85.0
  0
TEXT
  5
4C
330
17
100
AcDbEntity
  8
0
 62
5
100
AcDbText
 10
400.0
 20
-90.0
 30
0.0
 40
2.5
  1
Sentence 1 - It is the inverse operation of differentiation
 72
1
 11
400.0
 21
-90.0
 31
0.0
100
AcDbText
 73
2
  0
LWPOLYLINE
  5
4D
330
17
100
AcDbEntity
  8
0
 62
7
100
AcDbPolyline
 90
4
 70
1
 10
435.0
 20
-95.0
 10
465.0
 20
-95.0
 10
465.0
 20
-85.0
 10
435.0
 20
-85.0
  0
TEXT
  5
4E
330
17
100
AcDbEntity
  8
0
 62
5
100
AcDbText
 10
450.0
 20
-90.0
 30
0.0
 40
2.5
  1
Sentence 2 - Represents area under a curve in one dimension
 72
1
 11
450.0
 21
-90.0
 31
0.0
100
AcDbText
 73
2
  0
LWPOLYLINE
  5
4F
330
17
100
AcDbEntity
  8
0
 62
7
100
AcDbPolyline
 90
4
 70
1
 10
485.0
 20
-95.0
 10
515.0
 20
-95.0
 10
515.0
 20
-85.0
 10
485.0
 20
-85.0
  0
TEXT
  5
50
330
17
100
AcDbEntity
  8
0
 62
5
100
AcDbText
 10
500.0
 20
-90.0
 30
0.0
 40
2.5
  1
Sentence 3 - Can be generalized to volume and higher-order integrals
 72
1
 11
500.0
 21
-90.0
 31
0.0
100
AcDbText
 73
2
  0
LWPOLYLINE
  5
51
330
17
100
AcDbEntity
  8
0
 62
7
100
AcDbPolyline
 90
4
 70
1
 10
585.0
 20
-35.0
 10
615.0
 20
-35.0
 10
615.0
 20
-25.0
 10
585.0
 20
-25.0
  0
TEXT
  5
52
330
17
100
AcDbEntity
  8
0
 62
5
100
AcDbText
 10
600.0
 20
-30.0
 30
0.0
 40
2.5
  1
Equations
 72
1
 11
600.0
 21
-30.0
 31
0.0
100
AcDbText
 73
2
  0
LWPOLYLINE
  5
53
330
17
100
AcDbEntity
  8
0
 62
7
100
AcDbPolyline
 90
4
 70
1
 10
535.0
 20
-65.0
 10
565.0
 20
-65.0
 10
565.0
 20
-55.0
 10
535.0
 20
-55.0
  0
TEXT
  5
54
330
17
100
AcDbEntity
  8
0
 62
5
100
AcDbText
 10
550.0
 20
-60.0
 30
0.0
 40
2.5
  1
Equation 1.1 - Derivative definition
 72
1
 11
550.0
 21
-60.0
 31
0.0
100
AcDbText
 73
2
  0
LWPOLYLINE
  5
55
330
17
100
AcDbEntity
  8
0
 62
7
100
AcDbPolyline
 90
4
 70
1
 10
535.0
 20
-95.0
 10
565.0
 20
-95.0
 10
565.0
 20
-85.0
 10
535.0
 20
-85.0
  0
TEXT
  5
56
330
17
100
AcDbEntity
  8
0
 62
5
100
AcDbText
 10
550.0
 20
-90.0
 30
0.0
 40
2.5
  1
ASCII
 72
1
 11
550.0
 21
-90.0
 31
0.0
100
AcDbText
 73
2
  0
LWPOLYLINE
  5
57
330
17
100
AcDbEntity
  8
0
 62
7
100
AcDbPolyline
 90
4
 70
1
 10
585.0
 20
-65.0
 10
615.0
 20
-65.0
 10
615.0
 20
-55.0
 10
585.0
 20
-55.0
  0
TEXT
  5
58
330
17
100
AcDbEntity
  8
0
 62
5
100
AcDbText
 10
600.0
 20
-60.0
 30
0.0
 40
2.5
  1
Equation 1.2 - Integral definition
 72
1
 11
600.0
 21
-60.0
 31
0.0
100
AcDbText
 73
2
  0
LWPOLYLINE
  5
59
330
17
100
AcDbEntity
  8
0
 62
7
100
AcDbPolyline
 90
4
 70
1
 10
585.0
 20
-95.0
 10
615.0
 20
-95.0
 10
615.0
 20
-85.0
 10
585.0
 20
-85.0
  0
TEXT
  5
5A
330
17
100
AcDbEntity
  8
0
 62
5
100
AcDbText
 10
600.0
 20
-90.0
 30
0.0
 40
2.5
  1
ASCII
 72
1
 11
600.0
 21
-90.0
 31
0.0
100
AcDbText
 73
2
  0
LWPOLYLINE
  5
5B
330
17
100
AcDbEntity
  8
0
 62
7
100
AcDbPolyline
 90
4
 70
1
 10
635.0
 20
-65.0
 10
665.0
 20
-65.0
 10
665.0
 20
-55.0
 10
635.0
 20
-55.0
  0
TEXT
  5
5C
330
17
100
AcDbEntity
  8
0
 62
5
100
AcDbText
 10
650.0
 20
-60.0
 30
0.0
 40
2.5
  1
Equation 1.3 - Fundamental Theorem of Calculus
 72
1
 11
650.0
 21
-60.0
 31
0.0
100
AcDbText
 73
2
  0
LWPOLYLINE
  5
5D
330
17
100
AcDbEntity
  8
0
 62
7
100
AcDbPolyline
 90
4
 70
1
 10
635.0
 20
-95.0
 10
665.0
 20
-95.0
 10
665.0
 20
-85.0
 10
635.0
 20
-85.0
  0
TEXT
  5
5E
330
17
100
AcDbEntity
  8
0
 62
5
100
AcDbText
 10
650.0
 20
-90.0
 30
0.0
 40
2.5
  1
ASCII
 72
1
 11
650.0
 21
-90.0
 31
0.0
100
AcDbText
 73
2
  0
LWPOLYLINE
  5
5F
330
17
100
AcDbEntity
  8
0
 62
7
100
AcDbPolyline
 90
4
 70
1
 10
785.0
 20
-35.0
 10
815.0
 20
-35.0
 10
815.0
 20
-25.0
 10
785.0
 20
-25.0
  0
TEXT
  5
60
330
17
100
AcDbEntity
  8
0
 62
5
100
AcDbText
 10
800.0
 20
-30.0
 30
0.0
 40
2.5
  1
Equation Terms
 72
1
 11
800.0
 21
-30.0
 31
0.0
100
AcDbText
 73
2
  0
LWPOLYLINE
  5
61
330
17
100
AcDbEntity
  8
0
 62
7
100
AcDbPolyline
 90
4
 70
1
 10
685.0
 20
-65.0
 10
715.0
 20
-65.0
 10
715.0
 20
-55.0
 10
685.0
 20
-55.0
  0
TEXT
  5
62
330
17
100
AcDbEntity
  8
0
 62
5
100
AcDbText
 10
700.0
 20
-60.0
 30
0.0
 40
2.5
  1
f'(x) - Derivative of f with respect to x
 72
1
 11
700.0
 21
-60.0
 31
0.0
100
AcDbText
 73
2
  0
LWPOLYLINE
  5
63
330
17
100
AcDbEntity
  8
0
 62
7
100
AcDbPolyline
 90
4
 70
1
 10
735.0
 20
-65.0
 10
765.0
 20
-65.0
 10
765.0
 20
-55.0
 10
735.0
 20
-55.0
  0
TEXT
  5
64
330
17
100
AcDbEntity
  8
0
 62
5
100
AcDbText
 10
750.0
 20
-60.0
 30
0.0
 40
2.5
  1
h - Infinitesimal increment approaching zero
 72
1
 11
750.0
 21
-60.0
 31
0.0
100
AcDbText
 73
2
  0
LWPOLYLINE
  5
65
330
17
100
AcDbEntity
  8
0
 62
7
100
AcDbPolyline
 90
4
 70
1
 10
785.0
 20
-65.0
 10
815.0
 20
-65.0
 10
815.0
 20
-55.0
 10
785.0
 20
-55.0
  0
TEXT
  5
66
330
17
100
AcDbEntity
  8
0
 62
5
100
AcDbText
 10
800.0
 20
-60.0
 30
0.0
 40
2.5
  1
∫ f(x) dx - Indefinite integral of f(x)
 72
1
 11
800.0
 21
-60.0
 31
0.0
100
AcDbText
 73
2
  0
LWPOLYLINE
  5
67
330
17
100
AcDbEntity
  8
0
 62
7
100
AcDbPolyline
 90
4
 70
1
 10
835.0
 20
-65.0
 10
865.0
 20
-65.0
 10
865.0
 20
-55.0
 10
835.0
 20
-55.0
  0
TEXT
  5
68
330
17
100
AcDbEntity
  8
0
 62
5
100
AcDbText
 10
850.0
 20
-60.0
 30
0.0
 40
2.5
  1
F(x) - Antiderivative of f(x)
 72
1
 11
850.0
 21
-60.0
 31
0.0
100
AcDbText
 73
2
  0
LWPOLYLINE
  5
69
330
17
100
AcDbEntity
  8
0
 62
7
100
AcDbPolyline
 90
4
 70
1
 10
885.0
 20
-65.0
 10
915.0
 20
-65.0
 10
915.0
 20
-55.0
 10
885.0
 20
-55.0
  0
TEXT
  5
6A
330
17
100
AcDbEntity
  8
0
 62
5
100
AcDbText
 10
900.0
 20
-60.0
 30
0.0
 40
2.5
  1
C - Constant of integration
 72
1
 11
900.0
 21
-60.0
 31
0.0
100
AcDbText
 73
2
  0
LWPOLYLINE
  5
6B
330
17
100
AcDbEntity
  8
0
 62
7
100
AcDbPolyline
 90
4
 70
1
 10
1010.0
 20
-35.0
 10
1040.0
 20
-35.0
 10
1040.0
 20
-25.0
 10
1010.0
 20
-25.0
  0
TEXT
  5
6C
330
17
100
AcDbEntity
  8
0
 62
5
100
AcDbText
 10
1025.0
 20
-30.0
 30
0.0
 40
2.5
  1
Components
 72
1
 11
1025.0
 21
-30.0
 31
0.0
100
AcDbText
 73
2
  0
LWPOLYLINE
  5
6D
330
17
100
AcDbEntity
  8
0
 62
7
100
AcDbPolyline
 90
4
 70
1
 10
935.0
 20
-65.0
 10
965.0
 20
-65.0
 10
965.0
 20
-55.0
 10
935.0
 20
-55.0
  0
TEXT
  5
6E
330
17
100
AcDbEntity
  8
0
 62
5
100
AcDbText
 10
950.0
 20
-60.0
 30
0.0
 40
2.5
  1
Independent Variable - x
 72
1
 11
950.0
 21
-60.0
 31
0.0
100
AcDbText
 73
2
  0
LWPOLYLINE
  5
6F
330
17
100
AcDbEntity
  8
0
 62
7
100
AcDbPolyline
 90
4
 70
1
 10
985.0
 20
-65.0
 10
1015.0
 20
-65.0
 10
1015.0
 20
-55.0
 10
985.0
 20
-55.0
  0
TEXT
  5
70
330
17
100
AcDbEntity
  8
0
 62
5
100
AcDbText
 10
1000.0
 20
-60.0
 30
0.0
 40
2.5
  1
Dependent Variable - y
 72
1
 11
1000.0
 21
-60.0
 31
0.0
100
AcDbText
 73
2
  0
LWPOLYLINE
  5
71
330
17
100
AcDbEntity
  8
0
 62
7
100
AcDbPolyline
 90
4
 70
1
 10
1035.0
 20
-65.0
 10
1065.0
 20
-65.0
 10
1065.0
 20
-55.0
 10
1035.0
 20
-55.0
  0
TEXT
  5
72
330
17
100
AcDbEntity
  8
0
 62
5
100
AcDbText
 10
1050.0
 20
-60.0
 30
0.0
 40
2.5
  1
Function Notation - f(x)
 72
1
 11
1050.0
 21
-60.0
 31
0.0
100
AcDbText
 73
2
  0
LWPOLYLINE
  5
73
330
17
100
AcDbEntity
  8
0
 62
7
100
AcDbPolyline
 90
4
 70
1
 10
1085.0
 20
-65.0
 10
1115.0
 20
-65.0
 10
1115.0
 20
-55.0
 10
1085.0
 20
-55.0
  0
TEXT
  5
74
330
17
100
AcDbEntity
  8
0
 62
5
100
AcDbText
 10
1100.0
 20
-60.0
 30
0.0
 40
2.5
  1
Limit Operator - lim(h→0)
 72
1
 11
1100.0
 21
-60.0
 31
0.0
100
AcDbText
 73
2
  0
LWPOLYLINE
  5
75
330
17
100
AcDbEntity
  8
0
 62
7
100
AcDbPolyline
 90
4
 70
1
 10
1210.0
 20
-35.0
 10
1240.0
 20
-35.0
 10
1240.0
 20
-25.0
 10
1210.0
 20
-25.0
  0
TEXT
  5
76
330
17
100
AcDbEntity
  8
0
 62
5
100
AcDbText
 10
1225.0
 20
-30.0
 30
0.0
 40
2.5
  1
Worked Examples
 72
1
 11
1225.0
 21
-30.0
 31
0.0
100
AcDbText
 73
2
  0
LWPOLYLINE
  5
77
330
17
100
AcDbEntity
  8
0
 62
7
100
AcDbPolyline
 90
4
 70
1
 10
1160.0
 20
-65.0
 10
1190.0
 20
-65.0
 10
1190.0
 20
-55.0
 10
1160.0
 20
-55.0
  0
TEXT
  5
78
330
17
100
AcDbEntity
  8
0
 62
5
100
AcDbText
 10
1175.0
 20
-60.0
 30
0.0
 40
2.5
  1
Example 1 - Differentiate f(x) = x^2
 72
1
 11
1175.0
 21
-60.0
 31
0.0
100
AcDbText
 73
2
  0
LWPOLYLINE
  5
79
330
17
100
AcDbEntity
  8
0
 62
7
100
AcDbPolyline
 90
4
 70
1
 10
1135.0
 20
-95.0
 10
1165.0
 20
-95.0
 10
1165.0
 20
-85.0
 10
1135.0
 20
-85.0
  0
TEXT
  5
7A
330
17
100
AcDbEntity
  8
0
 62
5
100
AcDbText
 10
1150.0
 20
-90.0
 30
0.0
 40
2.5
  1
Step 1 - Apply power rule
 72
1
 11
1150.0
 21
-90.0
 31
0.0
100
AcDbText
 73
2
  0
LWPOLYLINE
  5
7B
330
17
100
AcDbEntity
  8
0
 62
7
100
AcDbPolyline
 90
4
 70
1
 10
1185.0
 20
-95.0
 10
1215.0
 20
-95.0
 10
1215.0
 20
-85.0
 10
1185.0
 20
-85.0
  0
TEXT
  5
7C
330
17
100
AcDbEntity
  8
0
 62
5
100
AcDbText
 10
1200.0
 20
-90.0
 30
0.0
 40
2.5
  1
Step 2 - Derivative is f'(x) = 2x
 72
1
 11
1200.0
 21
-90.0
 31
0.0
100
AcDbText
 73
2
  0
LWPOLYLINE
  5
7D
330
17
100
AcDbEntity
  8
0
 62
7
100
AcDbPolyline
 90
4
 70
1
 10
1260.0
 20
-65.0
 10
1290.0
 20
-65.0
 10
1290.0
 20
-55.0
 10
1260.0
 20
-55.0
  0
TEXT
  5
7E
330
17
100
AcDbEntity
  8
0
 62
5
100
AcDbText
 10
1275.0
 20
-60.0
 30
0.0
 40
2.5
  1
Example 2 - Integrate f(x) = 2x
 72
1
 11
1275.0
 21
-60.0
 31
0.0
100
AcDbText
 73
2
  0
LWPOLYLINE
  5
7F
330
17
100
AcDbEntity
  8
0
 62
7
100
AcDbPolyline
 90
4
 70
1
 10
1235.0
 20
-95.0
 10
1265.0
 20
-95.0
 10
1265.0
 20
-85.0
 10
1235.0
 20
-85.0
  0
TEXT
  5
80
330
17
100
AcDbEntity
  8
0
 62
5
100
AcDbText
 10
1250.0
 20
-90.0
 30
0.0
 40
2.5
  1
Step 1 - Apply reverse power rule
 72
1
 11
1250.0
 21
-90.0
 31
0.0
100
AcDbText
 73
2
  0
LWPOLYLINE
  5
81
330
17
100
AcDbEntity
  8
0
 62
7
100
AcDbPolyline
 90
4
 70
1
 10
1285.0
 20
-95.0
 10
1315.0
 20
-95.0
 10
1315.0
 20
-85.0
 10
1285.0
 20
-85.0
  0
TEXT
  5
82
330
17
100
AcDbEntity
  8
0
 62
5
100
AcDbText
 10
1300.0
 20
-90.0
 30
0.0
 40
2.5
  1
Step 2 - ∫ 2x dx = x^2 + C
 72
1
 11
1300.0
 21
-90.0
 31
0.0
100
AcDbText
 73
2
  0
LWPOLYLINE
  5
83
330
17
100
AcDbEntity
  8
0
 62
7
100
AcDbPolyline
 90
4
 70
1
 10
1410.0
 20
-35.0
 10
1440.0
 20
-35.0
 10
1440.0
 20
-25.0
 10
1410.0
 20
-25.0
  0
TEXT
  5
84
330
17
100
AcDbEntity
  8
0
 62
5
100
AcDbText
 10
1425.0
 20
-30.0
 30
0.0
 40
2.5
  1
Metadata
 72
1
 11
1425.0
 21
-30.0
 31
0.0
100
AcDbText
 73
2
  0
LWPOLYLINE
  5
85
330
17
100
AcDbEntity
  8
0
 62
7
100
AcDbPolyline
 90
4
 70
1
 10
1335.0
 20
-65.0
 10
1365.0
 20
-65.0
 10
1365.0
 20
-55.0
 10
1335.0
 20
-55.0
  0
TEXT
  5
86
330
17
100
AcDbEntity
  8
0
 62
5
100
AcDbText
 10
1350.0
 20
-60.0
 30
0.0
 40
2.5
  1
ComplexityLevel
 72
1
 11
1350.0
 21
-60.0
 31
0.0
100
AcDbText
 73
2
  0
LWPOLYLINE
  5
87
330
17
100
AcDbEntity
  8
0
 62
7
100
AcDbPolyline
 90
4
 70
1
 10
1385.0
 20
-65.0
 10
1415.0
 20
-65.0
 10
1415.0
 20
-55.0
 10
1385.0
 20
-55.0
  0
TEXT
  5
88
330
17
100
AcDbEntity
  8
0
 62
5
100
AcDbText
 10
1400.0
 20
-60.0
 30
0.0
 40
2.5
  1
LearningTime
 72
1
 11
1400.0
 21
-60.0
 31
0.0
100
AcDbText
 73
2
  0
LWPOLYLINE
  5
89
330
17
100
AcDbEntity
  8
0
 62
7
100
AcDbPolyline
 90
4
 70
1
 10
1435.0
 20
-65.0
 10
1465.0
 20
-65.0
 10
1465.0
 20
-55.0
 10
1435.0
 20
-55.0
  0
TEXT
  5
8A
330
17
100
AcDbEntity
  8
0
 62
5
100
AcDbText
 10
1450.0
 20
-60.0
 30
0.0
 40
2.5
  1
PracticalApplication
 72
1
 11
1450.0
 21
-60.0
 31
0.0
100
AcDbText
 73
2
  0
LWPOLYLINE
  5
8B
330
17
100
AcDbEntity
  8
0
 62
7
100
AcDbPolyline
 90
4
 70
1
 10
1485.0
 20
-65.0
 10
1515.0
 20
-65.0
 10
1515.0
 20
-55.0
 10
1485.0
 20
-55.0
  0
TEXT
  5
8C
330
17
100
AcDbEntity
  8
0
 62
5
100
AcDbText
 10
1500.0
 20
-60.0
 30
0.0
 40
2.5
  1
VisualizationAvailable
 72
1
 11
1500.0
 21
-60.0
 31
0.0
100
AcDbText
 73
2
  0
LWPOLYLINE
  5
8D
330
17
100
AcDbEntity
  8
0
 62
7
100
AcDbPolyline
 90
4
 70
1
 10
1660.0
 20
-35.0
 10
1690.0
 20
-35.0
 10
1690.0
 20
-25.0
 10
1660.0
 20
-25.0
  0
TEXT
  5
8E
330
17
100
AcDbEntity
  8
0
 62
5
100
AcDbText
 10
1675.0
 20
-30.0
 30
0.0
 40
2.5
  1
CrossReference
 72
1
 11
1675.0
 21
-30.0
 31
0.0
100
AcDbText
 73
2
  0
LWPOLYLINE
  5
8F
330
17
100
AcDbEntity
  8
0
 62
7
100
AcDbPolyline
 90
4
 70
1
 10
1560.0
 20
-65.0
 10
1590.0
 20
-65.0
 10
1590.0
 20
-55.0
 10
1560.0
 20
-55.0
  0
TEXT
  5
90
330
17
100
AcDbEntity
  8
0
 62
5
100
AcDbText
 10
1575.0
 20
-60.0
 30
0.0
 40
2.5
  1
Prerequisites
 72
1
 11
1575.0
 21
-60.0
 31
0.0
100
AcDbText
 73
2
  0
LWPOLYLINE
  5
91
330
17
100
AcDbEntity
  8
0
 62
7
100
AcDbPolyline
 90
4
 70
1
 10
1535.0
 20
-95.0
 10
1565.0
 20
-95.0
 10
1565.0
 20
-85.0
 10
1535.0
 20
-85.0
  0
TEXT
  5
92
330
17
100
AcDbEntity
  8
0
 62
5
100
AcDbText
 10
1550.0
 20
-90.0
 30
0.0
 40
2.5
  1
Functions
 72
1
 11
1550.0
 21
-90.0
 31
0.0
100
AcDbText
 73
2
  0
LWPOLYLINE
  5
93
330
17
100
AcDbEntity
  8
0
 62
7
100
AcDbPolyline
 90
4
 70
1
 10
1585.0
 20
-95.0
 10
1615.0
 20
-95.0
 10
1615.0
 20
-85.0
 10
1585.0
 20
-85.0
  0
TEXT
  5
94
330
17
100
AcDbEntity
  8
0
 62
5
100
AcDbText
 10
1600.0
 20
-90.0
 30
0.0
 40
2.5
  1
Limits
 72
1
 11
1600.0
 21
-90.0
 31
0.0
100
AcDbText
 73
2
  0
LWPOLYLINE
  5
95
330
17
100
AcDbEntity
  8
0
 62
7
100
AcDbPolyline
 90
4
 70
1
 10
1660.0
 20
-65.0
 10
1690.0
 20
-65.0
 10
1690.0
 20
-55.0
 10
1660.0
 20
-55.0
  0
TEXT
  5
96
330
17
100
AcDbEntity
  8
0
 62
5
100
AcDbText
 10
1675.0
 20
-60.0
 30
0.0
 40
2.5
  1
RelatedTopics
 72
1
 11
1675.0
 21
-60.0
 31
0.0
100
AcDbText
 73
2
  0
LWPOLYLINE
  5
97
330
17
100
AcDbEntity
  8
0
 62
7
100
AcDbPolyline
 90
4
 70
1
 10
1635.0
 20
-95.0
 10
1665.0
 20
-95.0
 10
1665.0
 20
-85.0
 10
1635.0
 20
-85.0
  0
TEXT
  5
98
330
17
100
AcDbEntity
  8
0
 62
5
100
AcDbText
 10
1650.0
 20
-90.0
 30
0.0
 40
2.5
  1
Multivariable Calculus
 72
1
 11
1650.0
 21
-90.0
 31
0.0
100
AcDbText
 73
2
  0
LWPOLYLINE
  5
99
330
17
100
AcDbEntity
  8
0
 62
7
100
AcDbPolyline
 90
4
 70
1
 10
1685.0
 20
-95.0
 10
1715.0
 20
-95.0
 10
1715.0
 20
-85.0
 10
1685.0
 20
-85.0
  0
TEXT
  5
9A
330
17
100
AcDbEntity
  8
0
 62
5
100
AcDbText
 10
1700.0
 20
-90.0
 30
0.0
 40
2.5
  1
Differential Equations
 72
1
 11
1700.0
 21
-90.0
 31
0.0
100
AcDbText
 73
2
  0
LWPOLYLINE
  5
9B
330
17
100
AcDbEntity
  8
0
 62
7
100
AcDbPolyline
 90
4
 70
1
 10
1760.0
 20
-65.0
 10
1790.0
 20
-65.0
 10
1790.0
 20
-55.0
 10
1760.0
 20
-55.0
  0
TEXT
  5
9C
330
17
100
AcDbEntity
  8
0
 62
5
100
AcDbText
 10
1775.0
 20
-60.0
 30
0.0
 40
2.5
  1
ProgressionPath
 72
1
 11
1775.0
 21
-60.0
 31
0.0
100
AcDbText
 73
2
  0
LWPOLYLINE
  5
9D
330
17
100
AcDbEntity
  8
0
 62
7
100
AcDbPolyline
 90
4
 70
1
 10
1735.0
 20
-95.0
 10
1765.0
 20
-95.0
 10
1765.0
 20
-85.0
 10
1735.0
 20
-85.0
  0
TEXT
  5
9E
330
17
100
AcDbEntity
  8
0
 62
5
100
AcDbText
 10
1750.0
 20
-90.0
 30
0.0
 40
2.5
  1
Partial Differentiation
 72
1
 11
1750.0
 21
-90.0
 31
0.0
100
AcDbText
 73
2
  0
LWPOLYLINE
  5
9F
330
17
100
AcDbEntity
  8
0
 62
7
100
AcDbPolyline
 90
4
 70
1
 10
1785.0
 20
-95.0
 10
1815.0
 20
-95.0
 10
1815.0
 20
-85.0
 10
1785.0
 20
-85.0
  0
TEXT
  5
A0
330
17
100
AcDbEntity
  8
0
 62
5
100
AcDbText
 10
1800.0
 20
-90.0
 30
0.0
 40
2.5
  1
Multiple Integrals
 72
1
 11
1800.0
 21
-90.0
 31
0.0
100
AcDbText
 73
2
  0
LWPOLYLINE
  5
A1
330
17
100
AcDbEntity
  8
0
 62
7
100
AcDbPolyline
 90
4
 70
1
 10
2253.0
 20
-35.0
 10
2283.0
 20
-35.0
 10
2283.0
 20
-25.0
 10
2253.0
 20
-25.0
  0
TEXT
  5
A2
330
17
100
AcDbEntity
  8
0
 62
5
100
AcDbText
 10
2268.0
 20
-30.0
 30
0.0
 40
2.5
  1
Partial Differentiation
 72
1
 11
2268.0
 21
-30.0
 31
0.0
100
AcDbText
 73
2
  0
LWPOLYLINE
  5
A3
330
17
100
AcDbEntity
  8
0
 62
7
100
AcDbPolyline
 90
4
 70
1
 10
1885.0
 20
-65.0
 10
1915.0
 20
-65.0
 10
1915.0
 20
-55.0
 10
1885.0
 20
-55.0
  0
TEXT
  5
A4
330
17
100
AcDbEntity
  8
0
 62
5
100
AcDbText
 10
1900.0
 20
-60.0
 30
0.0
 40
2.5
  1
Definitions
 72
1
 11
1900.0
 21
-60.0
 31
0.0
100
AcDbText
 73
2
  0
LWPOLYLINE
  5
A5
330
17
100
AcDbEntity
  8
0
 62
7
100
AcDbPolyline
 90
4
 70
1
 10
1885.0
 20
-95.0
 10
1915.0
 20
-95.0
 10
1915.0
 20
-85.0
 10
1885.0
 20
-85.0
  0
TEXT
  5
A6
330
17
100
AcDbEntity
  8
0
 62
5
100
AcDbText
 10
1900.0
 20
-90.0
 30
0.0
 40
2.5
  1
Partial Differentiation - Derivative with respect to one variable in multivariable functions
 72
1
 11
1900.0
 21
-90.0
 31
0.0
100
AcDbText
 73
2
  0
LWPOLYLINE
  5
A7
330
17
100
AcDbEntity
  8
0
 62
7
100
AcDbPolyline
 90
4
 70
1
 10
1835.0
 20
-125.0
 10
1865.0
 20
-125.0
 10
1865.0
 20
-115.0
 10
1835.0
 20
-115.0
  0
TEXT
  5
A8
330
17
100
AcDbEntity
  8
0
 62
5
100
AcDbText
 10
1850.0
 20
-120.0
 30
0.0
 40
2.5
  1
Sentence 1 - In functions of multiple variables, partial derivatives measure change with respect to one variable at a time
 72
1
 11
1850.0
 21
-120.0
 31
0.0
100
AcDbText
 73
2
  0
LWPOLYLINE
  5
A9
330
17
100
AcDbEntity
  8
0
 62
7
100
AcDbPolyline
 90
4
 70
1
 10
1885.0
 20
-125.0
 10
1915.0
 20
-125.0
 10
1915.0
 20
-115.0
 10
1885.0
 20
-115.0
  0
TEXT
  5
AA
330
17
100
AcDbEntity
  8
0
 62
5
100
AcDbText
 10
1900.0
 20
-120.0
 30
0.0
 40
2.5
  1
Sentence 2 - Other variables are held constant
 72
1
 11
1900.0
 21
-120.0
 31
0.0
100
AcDbText
 73
2
  0
LWPOLYLINE
  5
AB
330
17
100
AcDbEntity
  8
0
 62
7
100
AcDbPolyline
 90
4
 70
1
 10
1935.0
 20
-125.0
 10
1965.0
 20
-125.0
 10
1965.0
 20
-115.0
 10
1935.0
 20
-115.0
  0
TEXT
  5
AC
330
17
100
AcDbEntity
  8
0
 62
5
100
AcDbText
 10
1950.0
 20
-120.0
 30
0.0
 40
2.5
  1
Sentence 3 - Notation includes ∂f/∂x and ∂f/∂y
 72
1
 11
1950.0
 21
-120.0
 31
0.0
100
AcDbText
 73
2
  0
LWPOLYLINE
  5
AD
330
17
100
AcDbEntity
  8
0
 62
7
100
AcDbPolyline
 90
4
 70
1
 10
2010.0
 20
-65.0
 10
2040.0
 20
-65.0
 10
2040.0
 20
-55.0
 10
2010.0
 20
-55.0
  0
TEXT
  5
AE
330
17
100
AcDbEntity
  8
0
 62
5
100
AcDbText
 10
2025.0
 20
-60.0
 30
0.0
 40
2.5
  1
Equations
 72
1
 11
2025.0
 21
-60.0
 31
0.0
100
AcDbText
 73
2
  0
LWPOLYLINE
  5
AF
330
17
100
AcDbEntity
  8
0
 62
7
100
AcDbPolyline
 90
4
 70
1
 10
1985.0
 20
-95.0
 10
2015.0
 20
-95.0
 10
2015.0
 20
-85.0
 10
1985.0
 20
-85.0
  0
TEXT
  5
B0
330
17
100
AcDbEntity
  8
0
 62
5
100
AcDbText
 10
2000.0
 20
-90.0
 30
0.0
 40
2.5
  1
Equation 1.4 - Partial derivative with respect to x
 72
1
 11
2000.0
 21
-90.0
 31
0.0
100
AcDbText
 73
2
  0
LWPOLYLINE
  5
B1
330
17
100
AcDbEntity
  8
0
 62
7
100
AcDbPolyline
 90
4
 70
1
 10
1985.0
 20
-125.0
 10
2015.0
 20
-125.0
 10
2015.0
 20
-115.0
 10
1985.0
 20
-115.0
  0
TEXT
  5
B2
330
17
100
AcDbEntity
  8
0
 62
5
100
AcDbText
 10
2000.0
 20
-120.0
 30
0.0
 40
2.5
  1
ASCII
 72
1
 11
2000.0
 21
-120.0
 31
0.0
100
AcDbText
 73
2
  0
LWPOLYLINE
  5
B3
330
17
100
AcDbEntity
  8
0
 62
7
100
AcDbPolyline
 90
4
 70
1
 10
2035.0
 20
-95.0
 10
2065.0
 20
-95.0
 10
2065.0
 20
-85.0
 10
2035.0
 20
-85.0
  0
TEXT
  5
B4
330
17
100
AcDbEntity
  8
0
 62
5
100
AcDbText
 10
2050.0
 20
-90.0
 30
0.0
 40
2.5
  1
Equation 1.5 - Partial derivative with respect to y
 72
1
 11
2050.0
 21
-90.0
 31
0.0
100
AcDbText
 73
2
  0
LWPOLYLINE
  5
B5
330
17
100
AcDbEntity
  8
0
 62
7
100
AcDbPolyline
 90
4
 70
1
 10
2035.0
 20
-125.0
 10
2065.0
 20
-125.0
 10
2065.0
 20
-115.0
 10
2035.0
 20
-115.0
  0
TEXT
  5
B6
330
17
100
AcDbEntity
  8
0
 62
5
100
AcDbText
 10
2050.0
 20
-120.0
 30
0.0
 40
2.5
  1
ASCII
 72
1
 11
2050.0
 21
-120.0
 31
0.0
100
AcDbText
 73
2
  0
LWPOLYLINE
  5
B7
330
17
100
AcDbEntity
  8
0
 62
7
100
AcDbPolyline
 90
4
 70
1
 10
2135.0
 20
-65.0
 10
2165.0
 20
-65.0
 10
2165.0
 20
-55.0
 10
2135.0
 20
-55.0
  0
TEXT
  5
B8
330
17
100
AcDbEntity
  8
0
 62
5
100
AcDbText
 10
2150.0
 20
-60.0
 30
0.0
 40
2.5
  1
Equation Terms
 72
1
 11
2150.0
 21
-60.0
 31
0.0
100
AcDbText
 73
2
  0
LWPOLYLINE
  5
B9
330
17
100
AcDbEntity
  8
0
 62
7
100
AcDbPolyline
 90
4
 70
1
 10
2085.0
 20
-95.0
 10
2115.0
 20
-95.0
 10
2115.0
 20
-85.0
 10
2085.0
 20
-85.0
  0
TEXT
  5
BA
330
17
100
AcDbEntity
  8
0
 62
5
100
AcDbText
 10
2100.0
 20
-90.0
 30
0.0
 40
2.5
  1
∂f/∂x - Partial derivative of f with respect to x
 72
1
 11
2100.0
 21
-90.0
 31
0.0
100
AcDbText
 73
2
  0
LWPOLYLINE
  5
BB
330
17
100
AcDbEntity
  8
0
 62
7
100
AcDbPolyline
 90
4
 70
1
 10
2135.0
 20
-95.0
 10
2165.0
 20
-95.0
 10
2165.0
 20
-85.0
 10
2135.0
 20
-85.0
  0
TEXT
  5
BC
330
17
100
AcDbEntity
  8
0
 62
5
100
AcDbText
 10
2150.0
 20
-90.0
 30
0.0
 40
2.5
  1
∂f/∂y - Partial derivative of f with respect to y
 72
1
 11
2150.0
 21
-90.0
 31
0.0
100
AcDbText
 73
2
  0
LWPOLYLINE
  5
BD
330
17
100
AcDbEntity
  8
0
 62
7
100
AcDbPolyline
 90
4
 70
1
 10
2185.0
 20
-95.0
 10
2215.0
 20
-95.0
 10
2215.0
 20
-85.0
 10
2185.0
 20
-85.0
  0
TEXT
  5
BE
330
17
100
AcDbEntity
  8
0
 62
5
100
AcDbText
 10
2200.0
 20
-90.0
 30
0.0
 40
2.5
  1
Δx, Δy - Infinitesimal changes in x and y
 72
1
 11
2200.0
 21
-90.0
 31
0.0
100
AcDbText
 73
2
  0
LWPOLYLINE
  5
BF
330
17
100
AcDbEntity
  8
0
 62
7
100
AcDbPolyline
 90
4
 70
1
 10
2260.0
 20
-65.0
 10
2290.0
 20
-65.0
 10
2290.0
 20
-55.0
 10
2260.0
 20
-55.0
  0
TEXT
  5
C0
330
17
100
AcDbEntity
  8
0
 62
5
100
AcDbText
 10
2275.0
 20
-60.0
 30
0.0
 40
2.5
  1
Worked Examples
 72
1
 11
2275.0
 21
-60.0
 31
0.0
100
AcDbText
 73
2
  0
LWPOLYLINE
  5
C1
330
17
100
AcDbEntity
  8
0
 62
7
100
AcDbPolyline
 90
4
 70
1
 10
2260.0
 20
-95.0
 10
2290.0
 20
-95.0
 10
2290.0
 20
-85.0
 10
2260.0
 20
-85.0
  0
TEXT
  5
C2
330
17
100
AcDbEntity
  8
0
 62
5
100
AcDbText
 10
2275.0
 20
-90.0
 30
0.0
 40
2.5
  1
Example - Partial derivatives of f(x, y) = x^2 + y^2
 72
1
 11
2275.0
 21
-90.0
 31
0.0
100
AcDbText
 73
2
  0
LWPOLYLINE
  5
C3
330
17
100
AcDbEntity
  8
0
 62
7
100
AcDbPolyline
 90
4
 70
1
 10
2235.0
 20
-125.0
 10
2265.0
 20
-125.0
 10
2265.0
 20
-115.0
 10
2235.0
 20
-115.0
  0
TEXT
  5
C4
330
17
100
AcDbEntity
  8
0
 62
5
100
AcDbText
 10
2250.0
 20
-120.0
 30
0.0
 40
2.5
  1
Step 1 - Compute ∂f/∂x = 2x
 72
1
 11
2250.0
 21
-120.0
 31
0.0
100
AcDbText
 73
2
  0
LWPOLYLINE
  5
C5
330
17
100
AcDbEntity
  8
0
 62
7
100
AcDbPolyline
 90
4
 70
1
 10
2285.0
 20
-125.0
 10
2315.0
 20
-125.0
 10
2315.0
 20
-115.0
 10
2285.0
 20
-115.0
  0
TEXT
  5
C6
330
17
100
AcDbEntity
  8
0
 62
5
100
AcDbText
 10
2300.0
 20
-120.0
 30
0.0
 40
2.5
  1
Step 2 - Compute ∂f/∂y = 2y
 72
1
 11
2300.0
 21
-120.0
 31
0.0
100
AcDbText
 73
2
  0
LWPOLYLINE
  5
C7
330
17
100
AcDbEntity
  8
0
 62
7
100
AcDbPolyline
 90
4
 70
1
 10
2410.0
 20
-65.0
 10
2440.0
 20
-65.0
 10
2440.0
 20
-55.0
 10
2410.0
 20
-55.0
  0
TEXT
  5
C8
330
17
100
AcDbEntity
  8
0
 62
5
100
AcDbText
 10
2425.0
 20
-60.0
 30
0.0
 40
2.5
  1
Metadata
 72
1
 11
2425.0
 21
-60.0
 31
0.0
100
AcDbText
 73
2
  0
LWPOLYLINE
  5
C9
330
17
100
AcDbEntity
  8
0
 62
7
100
AcDbPolyline
 90
4
 70
1
 10
2335.0
 20
-95.0
 10
2365.0
 20
-95.0
 10
2365.0
 20
-85.0
 10
2335.0
 20
-85.0
  0
TEXT
  5
CA
330
17
100
AcDbEntity
  8
0
 62
5
100
AcDbText
 10
2350.0
 20
-90.0
 30
0.0
 40
2.5
  1
ComplexityLevel
 72
1
 11
2350.0
 21
-90.0
 31
0.0
100
AcDbText
 73
2
  0
LWPOLYLINE
  5
CB
330
17
100
AcDbEntity
  8
0
 62
7
100
AcDbPolyline
 90
4
 70
1
 10
2385.0
 20
-95.0
 10
2415.0
 20
-95.0
 10
2415.0
 20
-85.0
 10
2385.0
 20
-85.0
  0
TEXT
  5
CC
330
17
100
AcDbEntity
  8
0
 62
5
100
AcDbText
 10
2400.0
 20
-90.0
 30
0.0
 40
2.5
  1
LearningTime
 72
1
 11
2400.0
 21
-90.0
 31
0.0
100
AcDbText
 73
2
  0
LWPOLYLINE
  5
CD
330
17
100
AcDbEntity
  8
0
 62
7
100
AcDbPolyline
 90
4
 70
1
 10
2435.0
 20
-95.0
 10
2465.0
 20
-95.0
 10
2465.0
 20
-85.0
 10
2435.0
 20
-85.0
  0
TEXT
  5
CE
330
17
100
AcDbEntity
  8
0
 62
5
100
AcDbText
 10
2450.0
 20
-90.0
 30
0.0
 40
2.5
  1
PracticalApplication
 72
1
 11
2450.0
 21
-90.0
 31
0.0
100
AcDbText
 73
2
  0
LWPOLYLINE
  5
CF
330
17
100
AcDbEntity
  8
0
 62
7
100
AcDbPolyline
 90
4
 70
1
 10
2485.0
 20
-95.0
 10
2515.0
 20
-95.0
 10
2515.0
 20
-85.0
 10
2485.0
 20
-85.0
  0
TEXT
  5
D0
330
17
100
AcDbEntity
  8
0
 62
5
100
AcDbText
 10
2500.0
 20
-90.0
 30
0.0
 40
2.5
  1
VisualizationAvailable
 72
1
 11
2500.0
 21
-90.0
 31
0.0
100
AcDbText
 73
2
  0
LWPOLYLINE
  5
D1
330
17
100
AcDbEntity
  8
0
 62
7
100
AcDbPolyline
 90
4
 70
1
 10
2622.0
 20
-65.0
 10
2652.0
 20
-65.0
 10
2652.0
 20
-55.0
 10
2622.0
 20
-55.0
  0
TEXT
  5
D2
330
17
100
AcDbEntity
  8
0
 62
5
100
AcDbText
 10
2637.0
 20
-60.0
 30
0.0
 40
2.5
  1
CrossReference
 72
1
 11
2637.0
 21
-60.0
 31
0.0
100
AcDbText
 73
2
  0
LWPOLYLINE
  5
D3
330
17
100
AcDbEntity
  8
0
 62
7
100
AcDbPolyline
 90
4
 70
1
 10
2535.0
 20
-95.0
 10
2565.0
 20
-95.0
 10
2565.0
 20
-85.0
 10
2535.0
 20
-85.0
  0
TEXT
  5
D4
330
17
100
AcDbEntity
  8
0
 62
5
100
AcDbText
 10
2550.0
 20
-90.0
 30
0.0
 40
2.5
  1
Prerequisites
 72
1
 11
2550.0
 21
-90.0
 31
0.0
100
AcDbText
 73
2
  0
LWPOLYLINE
  5
D5
330
17
100
AcDbEntity
  8
0
 62
7
100
AcDbPolyline
 90
4
 70
1
 10
2535.0
 20
-125.0
 10
2565.0
 20
-125.0
 10
2565.0
 20
-115.0
 10
2535.0
 20
-115.0
  0
TEXT
  5
D6
330
17
100
AcDbEntity
  8
0
 62
5
100
AcDbText
 10
2550.0
 20
-120.0
 30
0.0
 40
2.5
  1
Single-variable Differentiation
 72
1
 11
2550.0
 21
-120.0
 31
0.0
100
AcDbText
 73
2
  0
LWPOLYLINE
  5
D7
330
17
100
AcDbEntity
  8
0
 62
7
100
AcDbPolyline
 90
4
 70
1
 10
2610.0
 20
-95.0
 10
2640.0
 20
-95.0
 10
2640.0
 20
-85.0
 10
2610.0
 20
-85.0
  0
TEXT
  5
D8
330
17
100
AcDbEntity
  8
0
 62
5
100
AcDbText
 10
2625.0
 20
-90.0
 30
0.0
 40
2.5
  1
RelatedTopics
 72
1
 11
2625.0
 21
-90.0
 31
0.0
100
AcDbText
 73
2
  0
LWPOLYLINE
  5
D9
330
17
100
AcDbEntity
  8
0
 62
7
100
AcDbPolyline
 90
4
 70
1
 10
2585.0
 20
-125.0
 10
2615.0
 20
-125.0
 10
2615.0
 20
-115.0
 10
2585.0
 20
-115.0
  0
TEXT
  5
DA
330
17
100
AcDbEntity
  8
0
 62
5
100
AcDbText
 10
2600.0
 20
-120.0
 30
0.0
 40
2.5
  1
Gradient
 72
1
 11
2600.0
 21
-120.0
 31
0.0
100
AcDbText
 73
2
  0
LWPOLYLINE
  5
DB
330
17
100
AcDbEntity
  8
0
 62
7
100
AcDbPolyline
 90
4
 70
1
 10
2635.0
 20
-125.0
 10
2665.0
 20
-125.0
 10
2665.0
 20
-115.0
 10
2635.0
 20
-115.0
  0
TEXT
  5
DC
330
17
100
AcDbEntity
  8
0
 62
5
100
AcDbText
 10
2650.0
 20
-120.0
 30
0.0
 40
2.5
  1
Jacobian Matrix
 72
1
 11
2650.0
 21
-120.0
 31
0.0
100
AcDbText
 73
2
  0
LWPOLYLINE
  5
DD
330
17
100
AcDbEntity
  8
0
 62
7
100
AcDbPolyline
 90
4
 70
1
 10
2710.0
 20
-95.0
 10
2740.0
 20
-95.0
 10
2740.0
 20
-85.0
 10
2710.0
 20
-85.0
  0
TEXT
  5
DE
330
17
100
AcDbEntity
  8
0
 62
5
100
AcDbText
 10
2725.0
 20
-90.0
 30
0.0
 40
2.5
  1
ProgressionPath
 72
1
 11
2725.0
 21
-90.0
 31
0.0
100
AcDbText
 73
2
  0
LWPOLYLINE
  5
DF
330
17
100
AcDbEntity
  8
0
 62
7
100
AcDbPolyline
 90
4
 70
1
 10
2685.0
 20
-125.0
 10
2715.0
 20
-125.0
 10
2715.0
 20
-115.0
 10
2685.0
 20
-115.0
  0
TEXT
  5
E0
330
17
100
AcDbEntity
  8
0
 62
5
100
AcDbText
 10
2700.0
 20
-120.0
 30
0.0
 40
2.5
  1
Multiple Integrals
 72
1
 11
2700.0
 21
-120.0
 31
0.0
100
AcDbText
 73
2
  0
LWPOLYLINE
  5
E1
330
17
100
AcDbEntity
  8
0
 62
7
100
AcDbPolyline
 90
4
 70
1
 10
2735.0
 20
-125.0
 10
2765.0
 20
-125.0
 10
2765.0
 20
-115.0
 10
2735.0
 20
-115.0
  0
TEXT
  5
E2
330
17
100
AcDbEntity
  8
0
 62
5
100
AcDbText
 10
2750.0
 20
-120.0
 30
0.0
 40
2.5
  1
Vector Calculus
 72
1
 11
2750.0
 21
-120.0
 31
0.0
100
AcDbText
 73
2
  0
LWPOLYLINE
  5
E3
330
17
100
AcDbEntity
  8
0
 62
7
100
AcDbPolyline
 90
4
 70
1
 10
3247.0
 20
-35.0
 10
3277.0
 20
-35.0
 10
3277.0
 20
-25.0
 10
3247.0
 20
-25.0
  0
TEXT
  5
E4
330
17
100
AcDbEntity
  8
0
 62
5
100
AcDbText
 10
3262.0
 20
-30.0
 30
0.0
 40
2.5
  1
Multiple Integrals
 72
1
 11
3262.0
 21
-30.0
 31
0.0
100
AcDbText
 73
2
  0
LWPOLYLINE
  5
E5
330
17
100
AcDbEntity
  8
0
 62
7
100
AcDbPolyline
 90
4
 70
1
 10
2835.0
 20
-65.0
 10
2865.0
 20
-65.0
 10
2865.0
 20
-55.0
 10
2835.0
 20
-55.0
  0
TEXT
  5
E6
330
17
100
AcDbEntity
  8
0
 62
5
100
AcDbText
 10
2850.0
 20
-60.0
 30
0.0
 40
2.5
  1
Definitions
 72
1
 11
2850.0
 21
-60.0
 31
0.0
100
AcDbText
 73
2
  0
LWPOLYLINE
  5
E7
330
17
100
AcDbEntity
  8
0
 62
7
100
AcDbPolyline
 90
4
 70
1
 10
2835.0
 20
-95.0
 10
2865.0
 20
-95.0
 10
2865.0
 20
-85.0
 10
2835.0
 20
-85.0
  0
TEXT
  5
E8
330
17
100
AcDbEntity
  8
0
 62
5
100
AcDbText
 10
2850.0
 20
-90.0
 30
0.0
 40
2.5
  1
Multiple Integrals - Extension of integration to multiple variables
 72
1
 11
2850.0
 21
-90.0
 31
0.0
100
AcDbText
 73
2
  0
LWPOLYLINE
  5
E9
330
17
100
AcDbEntity
  8
0
 62
7
100
AcDbPolyline
 90
4
 70
1
 10
2785.0
 20
-125.0
 10
2815.0
 20
-125.0
 10
2815.0
 20
-115.0
 10
2785.0
 20
-115.0
  0
TEXT
  5
EA
330
17
100
AcDbEntity
  8
0
 62
5
100
AcDbText
 10
2800.0
 20
-120.0
 30
0.0
 40
2.5
  1
Sentence 1 - Multiple integrals generalize single-variable integration
 72
1
 11
2800.0
 21
-120.0
 31
0.0
100
AcDbText
 73
2
  0
LWPOLYLINE
  5
EB
330
17
100
AcDbEntity
  8
0
 62
7
100
AcDbPolyline
 90
4
 70
1
 10
2835.0
 20
-125.0
 10
2865.0
 20
-125.0
 10
2865.0
 20
-115.0
 10
2835.0
 20
-115.0
  0
TEXT
  5
EC
330
17
100
AcDbEntity
  8
0
 62
5
100
AcDbText
 10
2850.0
 20
-120.0
 30
0.0
 40
2.5
  1
Sentence 2 - Used to compute area, volume, and higher-dimensional quantities
 72
1
 11
2850.0
 21
-120.0
 31
0.0
100
AcDbText
 73
2
  0
LWPOLYLINE
  5
ED
330
17
100
AcDbEntity
  8
0
 62
7
100
AcDbPolyline
 90
4
 70
1
 10
2885.0
 20
-125.0
 10
2915.0
 20
-125.0
 10
2915.0
 20
-115.0
 10
2885.0
 20
-115.0
  0
TEXT
  5
EE
330
17
100
AcDbEntity
  8
0
 62
5
100
AcDbText
 10
2900.0
 20
-120.0
 30
0.0
 40
2.5
  1
Sentence 3 - Integrals are taken with respect to one variable at a time
 72
1
 11
2900.0
 21
-120.0
 31
0.0
100
AcDbText
 73
2
  0
LWPOLYLINE
  5
EF
330
17
100
AcDbEntity
  8
0
 62
7
100
AcDbPolyline
 90
4
 70
1
 10
2960.0
 20
-65.0
 10
2990.0
 20
-65.0
 10
2990.0
 20
-55.0
 10
2960.0
 20
-55.0
  0
TEXT
  5
F0
330
17
100
AcDbEntity
  8
0
 62
5
100
AcDbText
 10
2975.0
 20
-60.0
 30
0.0
 40
2.5
  1
Equations
 72
1
 11
2975.0
 21
-60.0
 31
0.0
100
AcDbText
 73
2
  0
LWPOLYLINE
  5
F1
330
17
100
AcDbEntity
  8
0
 62
7
100
AcDbPolyline
 90
4
 70
1
 10
2935.0
 20
-95.0
 10
2965.0
 20
-95.0
 10
2965.0
 20
-85.0
 10
2935.0
 20
-85.0
  0
TEXT
  5
F2
330
17
100
AcDbEntity
  8
0
 62
5
100
AcDbText
 10
2950.0
 20
-90.0
 30
0.0
 40
2.5
  1
Equation 1.6 - Double integral over region R
 72
1
 11
2950.0
 21
-90.0
 31
0.0
100
AcDbText
 73
2
  0
LWPOLYLINE
  5
F3
330
17
100
AcDbEntity
  8
0
 62
7
100
AcDbPolyline
 90
4
 70
1
 10
2935.0
 20
-125.0
 10
2965.0
 20
-125.0
 10
2965.0
 20
-115.0
 10
2935.0
 20
-115.0
  0
TEXT
  5
F4
330
17
100
AcDbEntity
  8
0
 62
5
100
AcDbText
 10
2950.0
 20
-120.0
 30
0.0
 40
2.5
  1
ASCII
 72
1
 11
2950.0
 21
-120.0
 31
0.0
100
AcDbText
 73
2
  0
LWPOLYLINE
  5
F5
330
17
100
AcDbEntity
  8
0
 62
7
100
AcDbPolyline
 90
4
 70
1
 10
2985.0
 20
-95.0
 10
3015.0
 20
-95.0
 10
3015.0
 20
-85.0
 10
2985.0
 20
-85.0
  0
TEXT
  5
F6
330
17
100
AcDbEntity
  8
0
 62
5
100
AcDbText
 10
3000.0
 20
-90.0
 30
0.0
 40
2.5
  1
Equation 1.7 - Triple integral for volume
 72
1
 11
3000.0
 21
-90.0
 31
0.0
100
AcDbText
 73
2
  0
LWPOLYLINE
  5
F7
330
17
100
AcDbEntity
  8
0
 62
7
100
AcDbPolyline
 90
4
 70
1
 10
2985.0
 20
-125.0
 10
3015.0
 20
-125.0
 10
3015.0
 20
-115.0
 10
2985.0
 20
-115.0
  0
TEXT
  5
F8
330
17
100
AcDbEntity
  8
0
 62
5
100
AcDbText
 10
3000.0
 20
-120.0
 30
0.0
 40
2.5
  1
ASCII
 72
1
 11
3000.0
 21
-120.0
 31
0.0
100
AcDbText
 73
2
  0
LWPOLYLINE
  5
F9
330
17
100
AcDbEntity
  8
0
 62
7
100
AcDbPolyline
 90
4
 70
1
 10
3085.0
 20
-65.0
 10
3115.0
 20
-65.0
 10
3115.0
 20
-55.0
 10
3085.0
 20
-55.0
  0
TEXT
  5
FA
330
17
100
AcDbEntity
  8
0
 62
5
100
AcDbText
 10
3100.0
 20
-60.0
 30
0.0
 40
2.5
  1
Equation Terms
 72
1
 11
3100.0
 21
-60.0
 31
0.0
100
AcDbText
 73
2
  0
LWPOLYLINE
  5
FB
330
17
100
AcDbEntity
  8
0
 62
7
100
AcDbPolyline
 90
4
 70
1
 10
3035.0
 20
-95.0
 10
3065.0
 20
-95.0
 10
3065.0
 20
-85.0
 10
3035.0
 20
-85.0
  0
TEXT
  5
FC
330
17
100
AcDbEntity
  8
0
 62
5
100
AcDbText
 10
3050.0
 20
-90.0
 30
0.0
 40
2.5
  1
∬_R - Double integral over region R
 72
1
 11
3050.0
 21
-90.0
 31
0.0
100
AcDbText
 73
2
  0
LWPOLYLINE
  5
FD
330
17
100
AcDbEntity
  8
0
 62
7
100
AcDbPolyline
 90
4
 70
1
 10
3085.0
 20
-95.0
 10
3115.0
 20
-95.0
 10
3115.0
 20
-85.0
 10
3085.0
 20
-85.0
  0
TEXT
  5
FE
330
17
100
AcDbEntity
  8
0
 62
5
100
AcDbText
 10
3100.0
 20
-90.0
 30
0.0
 40
2.5
  1
∭_V - Triple integral over volume V
 72
1
 11
3100.0
 21
-90.0
 31
0.0
100
AcDbText
 73
2
  0
LWPOLYLINE
  5
FF
330
17
100
AcDbEntity
  8
0
 62
7
100
AcDbPolyline
 90
4
 70
1
 10
3135.0
 20
-95.0
 10
3165.0
 20
-95.0
 10
3165.0
 20
-85.0
 10
3135.0
 20
-85.0
  0
TEXT
  5
100
330
17
100
AcDbEntity
  8
0
 62
5
100
AcDbText
 10
3150.0
 20
-90.0
 30
0.0
 40
2.5
  1
dx, dy, dz - Differential volume elements
 72
1
 11
3150.0
 21
-90.0
 31
0.0
100
AcDbText
 73
2
  0
LWPOLYLINE
  5
101
330
17
100
AcDbEntity
  8
0
 62
7
100
AcDbPolyline
 90
4
 70
1
 10
3235.0
 20
-65.0
 10
3265.0
 20
-65.0
 10
3265.0
 20
-55.0
 10
3235.0
 20
-55.0
  0
TEXT
  5
102
330
17
100
AcDbEntity
  8
0
 62
5
100
AcDbText
 10
3250.0
 20
-60.0
 30
0.0
 40
2.5
  1
Worked Examples
 72
1
 11
3250.0
 21
-60.0
 31
0.0
100
AcDbText
 73
2
  0
LWPOLYLINE
  5
103
330
17
100
AcDbEntity
  8
0
 62
7
100
AcDbPolyline
 90
4
 70
1
 10
3235.0
 20
-95.0
 10
3265.0
 20
-95.0
 10
3265.0
 20
-85.0
 10
3235.0
 20
-85.0
  0
TEXT
  5
104
330
17
100
AcDbEntity
  8
0
 62
5
100
AcDbText
 10
3250.0
 20
-90.0
 30
0.0
 40
2.5
  1
Example - Compute ∬_R x + y over square region [0,1] x [0,1]
 72
1
 11
3250.0
 21
-90.0
 31
0.0
100
AcDbText
 73
2
  0
LWPOLYLINE
  5
105
330
17
100
AcDbEntity
  8
0
 62
7
100
AcDbPolyline
 90
4
 70
1
 10
3185.0
 20
-125.0
 10
3215.0
 20
-125.0
 10
3215.0
 20
-115.0
 10
3185.0
 20
-115.0
  0
TEXT
  5
106
330
17
100
AcDbEntity
  8
0
 62
5
100
AcDbText
 10
3200.0
 20
-120.0
 30
0.0
 40
2.5
  1
Step 1 - Set up integral: ∫₀¹ ∫₀¹ (x + y) dx dy
 72
1
 11
3200.0
 21
-120.0
 31
0.0
100
AcDbText
 73
2
  0
LWPOLYLINE
  5
107
330
17
100
AcDbEntity
  8
0
 62
7
100
AcDbPolyline
 90
4
 70
1
 10
3235.0
 20
-125.0
 10
3265.0
 20
-125.0
 10
3265.0
 20
-115.0
 10
3235.0
 20
-115.0
  0
TEXT
  5
108
330
17
100
AcDbEntity
  8
0
 62
5
100
AcDbText
 10
3250.0
 20
-120.0
 30
0.0
 40
2.5
  1
Step 2 - Integrate w.r.t x: ∫₀¹ [x^2/2 + xy]₀¹ dy
 72
1
 11
3250.0
 21
-120.0
 31
0.0
100
AcDbText
 73
2
  0
LWPOLYLINE
  5
109
330
17
100
AcDbEntity
  8
0
 62
7
100
AcDbPolyline
 90
4
 70
1
 10
3285.0
 20
-125.0
 10
3315.0
 20
-125.0
 10
3315.0
 20
-115.0
 10
3285.0
 20
-115.0
  0
TEXT
  5
10A
330
17
100
AcDbEntity
  8
0
 62
5
100
AcDbText
 10
3300.0
 20
-120.0
 30
0.0
 40
2.5
  1
Step 3 - Integrate w.r.t y: ∫₀¹ (1/2 + y) dy = 1/2 + 1/2 = 1
 72
1
 11
3300.0
 21
-120.0
 31
0.0
100
AcDbText
 73
2
  0
LWPOLYLINE
  5
10B
330
17
100
AcDbEntity
  8
0
 62
7
100
AcDbPolyline
 90
4
 70
1
 10
3410.0
 20
-65.0
 10
3440.0
 20
-65.0
 10
3440.0
 20
-55.0
 10
3410.0
 20
-55.0
  0
TEXT
  5
10C
330
17
100
AcDbEntity
  8
0
 62
5
100
AcDbText
 10
3425.0
 20
-60.0
 30
0.0
 40
2.5
  1
Metadata
 72
1
 11
3425.0
 21
-60.0
 31
0.0
100
AcDbText
 73
2
  0
LWPOLYLINE
  5
10D
330
17
100
AcDbEntity
  8
0
 62
7
100
AcDbPolyline
 90
4
 70
1
 10
3335.0
 20
-95.0
 10
3365.0
 20
-95.0
 10
3365.0
 20
-85.0
 10
3335.0
 20
-85.0
  0
TEXT
  5
10E
330
17
100
AcDbEntity
  8
0
 62
5
100
AcDbText
 10
3350.0
 20
-90.0
 30
0.0
 40
2.5
  1
ComplexityLevel
 72
1
 11
3350.0
 21
-90.0
 31
0.0
100
AcDbText
 73
2
  0
LWPOLYLINE
  5
10F
330
17
100
AcDbEntity
  8
0
 62
7
100
AcDbPolyline
 90
4
 70
1
 10
3385.0
 20
-95.0
 10
3415.0
 20
-95.0
 10
3415.0
 20
-85.0
 10
3385.0
 20
-85.0
  0
TEXT
  5
110
330
17
100
AcDbEntity
  8
0
 62
5
100
AcDbText
 10
3400.0
 20
-90.0
 30
0.0
 40
2.5
  1
LearningTime
 72
1
 11
3400.0
 21
-90.0
 31
0.0
100
AcDbText
 73
2
  0
LWPOLYLINE
  5
111
330
17
100
AcDbEntity
  8
0
 62
7
100
AcDbPolyline
 90
4
 70
1
 10
3435.0
 20
-95.0
 10
3465.0
 20
-95.0
 10
3465.0
 20
-85.0
 10
3435.0
 20
-85.0
  0
TEXT
  5
112
330
17
100
AcDbEntity
  8
0
 62
5
100
AcDbText
 10
3450.0
 20
-90.0
 30
0.0
 40
2.5
  1
PracticalApplication
 72
1
 11
3450.0
 21
-90.0
 31
0.0
100
AcDbText
 73
2
  0
LWPOLYLINE
  5
113
330
17
100
AcDbEntity
  8
0
 62
7
100
AcDbPolyline
 90
4
 70
1
 10
3485.0
 20
-95.0
 10
3515.0
 20
-95.0
 10
3515.0
 20
-85.0
 10
3485.0
 20
-85.0
  0
TEXT
  5
114
330
17
100
AcDbEntity
  8
0
 62
5
100
AcDbText
 10
3500.0
 20
-90.0
 30
0.0
 40
2.5
  1
VisualizationAvailable
 72
1
 11
3500.0
 21
-90.0
 31
0.0
100
AcDbText
 73
2
  0
LWPOLYLINE
  5
115
330
17
100
AcDbEntity
  8
0
 62
7
100
AcDbPolyline
 90
4
 70
1
 10
3660.0
 20
-65.0
 10
3690.0
 20
-65.0
 10
3690.0
 20
-55.0
 10
3660.0
 20
-55.0
  0
TEXT
  5
116
330
17
100
AcDbEntity
  8
0
 62
5
100
AcDbText
 10
3675.0
 20
-60.0
 30
0.0
 40
2.5
  1
CrossReference
 72
1
 11
3675.0
 21
-60.0
 31
0.0
100
AcDbText
 73
2
  0
LWPOLYLINE
  5
117
330
17
100
AcDbEntity
  8
0
 62
7
100
AcDbPolyline
 90
4
 70
1
 10
3560.0
 20
-95.0
 10
3590.0
 20
-95.0
 10
3590.0
 20
-85.0
 10
3560.0
 20
-85.0
  0
TEXT
  5
118
330
17
100
AcDbEntity
  8
0
 62
5
100
AcDbText
 10
3575.0
 20
-90.0
 30
0.0
 40
2.5
  1
Prerequisites
 72
1
 11
3575.0
 21
-90.0
 31
0.0
100
AcDbText
 73
2
  0
LWPOLYLINE
  5
119
330
17
100
AcDbEntity
  8
0
 62
7
100
AcDbPolyline
 90
4
 70
1
 10
3535.0
 20
-125.0
 10
3565.0
 20
-125.0
 10
3565.0
 20
-115.0
 10
3535.0
 20
-115.0
  0
TEXT
  5
11A
330
17
100
AcDbEntity
  8
0
 62
5
100
AcDbText
 10
3550.0
 20
-120.0
 30
0.0
 40
2.5
  1
Single-variable Integration
 72
1
 11
3550.0
 21
-120.0
 31
0.0
100
AcDbText
 73
2
  0
LWPOLYLINE
  5
11B
330
17
100
AcDbEntity
  8
0
 62
7
100
AcDbPolyline
 90
4
 70
1
 10
3585.0
 20
-125.0
 10
3615.0
 20
-125.0
 10
3615.0
 20
-115.0
 10
3585.0
 20
-115.0
  0
TEXT
  5
11C
330
17
100
AcDbEntity
  8
0
 62
5
100
AcDbText
 10
3600.0
 20
-120.0
 30
0.0
 40
2.5
  1
Partial Differentiation
 72
1
 11
3600.0
 21
-120.0
 31
0.0
100
AcDbText
 73
2
  0
LWPOLYLINE
  5
11D
330
17
100
AcDbEntity
  8
0
 62
7
100
AcDbPolyline
 90
4
 70
1
 10
3660.0
 20
-95.0
 10
3690.0
 20
-95.0
 10
3690.0
 20
-85.0
 10
3660.0
 20
-85.0
  0
TEXT
  5
11E
330
17
100
AcDbEntity
  8
0
 62
5
100
AcDbText
 10
3675.0
 20
-90.0
 30
0.0
 40
2.5
  1
RelatedTopics
 72
1
 11
3675.0
 21
-90.0
 31
0.0
100
AcDbText
 73
2
  0
LWPOLYLINE
  5
11F
330
17
100
AcDbEntity
  8
0
 62
7
100
AcDbPolyline
 90
4
 70
1
 10
3635.0
 20
-125.0
 10
3665.0
 20
-125.0
 10
3665.0
 20
-115.0
 10
3635.0
 20
-115.0
  0
TEXT
  5
120
330
17
100
AcDbEntity
  8
0
 62
5
100
AcDbText
 10
3650.0
 20
-120.0
 30
0.0
 40
2.5
  1
Vector Fields
 72
1
 11
3650.0
 21
-120.0
 31
0.0
100
AcDbText
 73
2
  0
LWPOLYLINE
  5
121
330
17
100
AcDbEntity
  8
0
 62
7
100
AcDbPolyline
 90
4
 70
1
 10
3685.0
 20
-125.0
 10
3715.0
 20
-125.0
 10
3715.0
 20
-115.0
 10
3685.0
 20
-115.0
  0
TEXT
  5
122
330
17
100
AcDbEntity
  8
0
 62
5
100
AcDbText
 10
3700.0
 20
-120.0
 30
0.0
 40
2.5
  1
Divergence Theorem
 72
1
 11
3700.0
 21
-120.0
 31
0.0
100
AcDbText
 73
2
  0
LWPOLYLINE
  5
123
330
17
100
AcDbEntity
  8
0
 62
7
100
AcDbPolyline
 90
4
 70
1
 10
3760.0
 20
-95.0
 10
3790.0
 20
-95.0
 10
3790.0
 20
-85.0
 10
3760.0
 20
-85.0
  0
TEXT
  5
124
330
17
100
AcDbEntity
  8
0
 62
5
100
AcDbText
 10
3775.0
 20
-90.0
 30
0.0
 40
2.5
  1
ProgressionPath
 72
1
 11
3775.0
 21
-90.0
 31
0.0
100
AcDbText
 73
2
  0
LWPOLYLINE
  5
125
330
17
100
AcDbEntity
  8
0
 62
7
100
AcDbPolyline
 90
4
 70
1
 10
3735.0
 20
-125.0
 10
3765.0
 20
-125.0
 10
3765.0
 20
-115.0
 10
3735.0
 20
-115.0
  0
TEXT
  5
126
330
17
100
AcDbEntity
  8
0
 62
5
100
AcDbText
 10
3750.0
 20
-120.0
 30
0.0
 40
2.5
  1
Calculus of Variations
 72
1
 11
3750.0
 21
-120.0
 31
0.0
100
AcDbText
 73
2
  0
LWPOLYLINE
  5
127
330
17
100
AcDbEntity
  8
0
 62
7
100
AcDbPolyline
 90
4
 70
1
 10
3785.0
 20
-125.0
 10
3815.0
 20
-125.0
 10
3815.0
 20
-115.0
 10
3785.0
 20
-115.0
  0
TEXT
  5
128
330
17
100
AcDbEntity
  8
0
 62
5
100
AcDbText
 10
3800.0
 20
-120.0
 30
0.0
 40
2.5
  1
Tensor Analysis
 72
1
 11
3800.0
 21
-120.0
 31
0.0
100
AcDbText
 73
2
  0
LWPOLYLINE
  5
129
330
17
100
AcDbEntity
  8
0
 62
7
100
AcDbPolyline
 90
4
 70
1
 10
4460.0
 20
-35.0
 10
4490.0
 20
-35.0
 10
4490.0
 20
-25.0
 10
4460.0
 20
-25.0
  0
TEXT
  5
12A
330
17
100
AcDbEntity
  8
0
 62
5
100
AcDbText
 10
4475.0
 20
-30.0
 30
0.0
 40
2.5
  1
Calculus of Variations
 72
1
 11
4475.0
 21
-30.0
 31
0.0
100
AcDbText
 73
2
  0
LWPOLYLINE
  5
12B
330
17
100
AcDbEntity
  8
0
 62
7
100
AcDbPolyline
 90
4
 70
1
 10
3960.0
 20
-65.0
 10
3990.0
 20
-65.0
 10
3990.0
 20
-55.0
 10
3960.0
 20
-55.0
  0
TEXT
  5
12C
330
17
100
AcDbEntity
  8
0
 62
5
100
AcDbText
 10
3975.0
 20
-60.0
 30
0.0
 40
2.5
  1
Definitions
 72
1
 11
3975.0
 21
-60.0
 31
0.0
100
AcDbText
 73
2
  0
LWPOLYLINE
  5
12D
330
17
100
AcDbEntity
  8
0
 62
7
100
AcDbPolyline
 90
4
 70
1
 10
3885.0
 20
-95.0
 10
3915.0
 20
-95.0
 10
3915.0
 20
-85.0
 10
3885.0
 20
-85.0
  0
TEXT
  5
12E
330
17
100
AcDbEntity
  8
0
 62
5
100
AcDbText
 10
3900.0
 20
-90.0
 30
0.0
 40
2.5
  1
Calculus of Variations - Optimization of functionals
 72
1
 11
3900.0
 21
-90.0
 31
0.0
100
AcDbText
 73
2
  0
LWPOLYLINE
  5
12F
330
17
100
AcDbEntity
  8
0
 62
7
100
AcDbPolyline
 90
4
 70
1
 10
3835.0
 20
-125.0
 10
3865.0
 20
-125.0
 10
3865.0
 20
-115.0
 10
3835.0
 20
-115.0
  0
TEXT
  5
130
330
17
100
AcDbEntity
  8
0
 62
5
100
AcDbText
 10
3850.0
 20
-120.0
 30
0.0
 40
2.5
  1
Sentence 1 - Concerned with finding functions that optimize a given quantity
 72
1
 11
3850.0
 21
-120.0
 31
0.0
100
AcDbText
 73
2
  0
LWPOLYLINE
  5
131
330
17
100
AcDbEntity
  8
0
 62
7
100
AcDbPolyline
 90
4
 70
1
 10
3885.0
 20
-125.0
 10
3915.0
 20
-125.0
 10
3915.0
 20
-115.0
 10
3885.0
 20
-115.0
  0
TEXT
  5
132
330
17
100
AcDbEntity
  8
0
 62
5
100
AcDbText
 10
3900.0
 20
-120.0
 30
0.0
 40
2.5
  1
Sentence 2 - Functionals map functions to scalar values
 72
1
 11
3900.0
 21
-120.0
 31
0.0
100
AcDbText
 73
2
  0
LWPOLYLINE
  5
133
330
17
100
AcDbEntity
  8
0
 62
7
100
AcDbPolyline
 90
4
 70
1
 10
3935.0
 20
-125.0
 10
3965.0
 20
-125.0
 10
3965.0
 20
-115.0
 10
3935.0
 20
-115.0
  0
TEXT
  5
134
330
17
100
AcDbEntity
  8
0
 62
5
100
AcDbText
 10
3950.0
 20
-120.0
 30
0.0
 40
2.5
  1
Sentence 3 - Applications include physics, engineering, and economics
 72
1
 11
3950.0
 21
-120.0
 31
0.0
100
AcDbText
 73
2
  0
LWPOLYLINE
  5
135
330
17
100
AcDbEntity
  8
0
 62
7
100
AcDbPolyline
 90
4
 70
1
 10
4035.0
 20
-95.0
 10
4065.0
 20
-95.0
 10
4065.0
 20
-85.0
 10
4035.0
 20
-85.0
  0
TEXT
  5
136
330
17
100
AcDbEntity
  8
0
 62
5
100
AcDbText
 10
4050.0
 20
-90.0
 30
0.0
 40
2.5
  1
Functional - A function of functions
 72
1
 11
4050.0
 21
-90.0
 31
0.0
100
AcDbText
 73
2
  0
LWPOLYLINE
  5
137
330
17
100
AcDbEntity
  8
0
 62
7
100
AcDbPolyline
 90
4
 70
1
 10
3985.0
 20
-125.0
 10
4015.0
 20
-125.0
 10
4015.0
 20
-115.0
 10
3985.0
 20
-115.0
  0
TEXT
  5
138
330
17
100
AcDbEntity
  8
0
 62
5
100
AcDbText
 10
4000.0
 20
-120.0
 30
0.0
 40
2.5
  1
Sentence 1 - A functional takes an entire function as input
 72
1
 11
4000.0
 21
-120.0
 31
0.0
100
AcDbText
 73
2
  0
LWPOLYLINE
  5
139
330
17
100
AcDbEntity
  8
0
 62
7
100
AcDbPolyline
 90
4
 70
1
 10
4035.0
 20
-125.0
 10
4065.0
 20
-125.0
 10
4065.0
 20
-115.0
 10
4035.0
 20
-115.0
  0
TEXT
  5
13A
330
17
100
AcDbEntity
  8
0
 62
5
100
AcDbText
 10
4050.0
 20
-120.0
 30
0.0
 40
2.5
  1
Sentence 2 - Returns a scalar, such as total energy or distance
 72
1
 11
4050.0
 21
-120.0
 31
0.0
100
AcDbText
 73
2
  0
LWPOLYLINE
  5
13B
330
17
100
AcDbEntity
  8
0
 62
7
100
AcDbPolyline
 90
4
 70
1
 10
4085.0
 20
-125.0
 10
4115.0
 20
-125.0
 10
4115.0
 20
-115.0
 10
4085.0
 20
-115.0
  0
TEXT
  5
13C
330
17
100
AcDbEntity
  8
0
 62
5
100
AcDbText
 10
4100.0
 20
-120.0
 30
0.0
 40
2.5
  1
Sentence 3 - Often expressed as an integral involving the function and its derivative
 72
1
 11
4100.0
 21
-120.0
 31
0.0
100
AcDbText
 73
2
  0
LWPOLYLINE
  5
13D
330
17
100
AcDbEntity
  8
0
 62
7
100
AcDbPolyline
 90
4
 70
1
 10
4160.0
 20
-65.0
 10
4190.0
 20
-65.0
 10
4190.0
 20
-55.0
 10
4160.0
 20
-55.0
  0
TEXT
  5
13E
330
17
100
AcDbEntity
  8
0
 62
5
100
AcDbText
 10
4175.0
 20
-60.0
 30
0.0
 40
2.5
  1
Equations
 72
1
 11
4175.0
 21
-60.0
 31
0.0
100
AcDbText
 73
2
  0
LWPOLYLINE
  5
13F
330
17
100
AcDbEntity
  8
0
 62
7
100
AcDbPolyline
 90
4
 70
1
 10
4135.0
 20
-95.0
 10
4165.0
 20
-95.0
 10
4165.0
 20
-85.0
 10
4135.0
 20
-85.0
  0
TEXT
  5
140
330
17
100
AcDbEntity
  8
0
 62
5
100
AcDbText
 10
4150.0
 20
-90.0
 30
0.0
 40
2.5
  1
Equation 1.8 - Functional definition
 72
1
 11
4150.0
 21
-90.0
 31
0.0
100
AcDbText
 73
2
  0
LWPOLYLINE
  5
141
330
17
100
AcDbEntity
  8
0
 62
7
100
AcDbPolyline
 90
4
 70
1
 10
4135.0
 20
-125.0
 10
4165.0
 20
-125.0
 10
4165.0
 20
-115.0
 10
4135.0
 20
-115.0
  0
TEXT
  5
142
330
17
100
AcDbEntity
  8
0
 62
5
100
AcDbText
 10
4150.0
 20
-120.0
 30
0.0
 40
2.5
  1
ASCII
 72
1
 11
4150.0
 21
-120.0
 31
0.0
100
AcDbText
 73
2
  0
LWPOLYLINE
  5
143
330
17
100
AcDbEntity
  8
0
 62
7
100
AcDbPolyline
 90
4
 70
1
 10
4185.0
 20
-95.0
 10
4215.0
 20
-95.0
 10
4215.0
 20
-85.0
 10
4185.0
 20
-85.0
  0
TEXT
  5
144
330
17
100
AcDbEntity
  8
0
 62
5
100
AcDbText
 10
4200.0
 20
-90.0
 30
0.0
 40
2.5
  1
Equation 1.9 - Euler-Lagrange equation
 72
1
 11
4200.0
 21
-90.0
 31
0.0
100
AcDbText
 73
2
  0
LWPOLYLINE
  5
145
330
17
100
AcDbEntity
  8
0
 62
7
100
AcDbPolyline
 90
4
 70
1
 10
4185.0
 20
-125.0
 10
4215.0
 20
-125.0
 10
4215.0
 20
-115.0
 10
4185.0
 20
-115.0
  0
TEXT
  5
146
330
17
100
AcDbEntity
  8
0
 62
5
100
AcDbText
 10
4200.0
 20
-120.0
 30
0.0
 40
2.5
  1
ASCII
 72
1
 11
4200.0
 21
-120.0
 31
0.0
100
AcDbText
 73
2
  0
LWPOLYLINE
  5
147
330
17
100
AcDbEntity
  8
0
 62
7
100
AcDbPolyline
 90
4
 70
1
 10
4335.0
 20
-65.0
 10
4365.0
 20
-65.0
 10
4365.0
 20
-55.0
 10
4335.0
 20
-55.0
  0
TEXT
  5
148
330
17
100
AcDbEntity
  8
0
 62
5
100
AcDbText
 10
4350.0
 20
-60.0
 30
0.0
 40
2.5
  1
Equation Terms
 72
1
 11
4350.0
 21
-60.0
 31
0.0
100
AcDbText
 73
2
  0
LWPOLYLINE
  5
149
330
17
100
AcDbEntity
  8
0
 62
7
100
AcDbPolyline
 90
4
 70
1
 10
4235.0
 20
-95.0
 10
4265.0
 20
-95.0
 10
4265.0
 20
-85.0
 10
4235.0
 20
-85.0
  0
TEXT
  5
14A
330
17
100
AcDbEntity
  8
0
 62
5
100
AcDbText
 10
4250.0
 20
-90.0
 30
0.0
 40
2.5
  1
J[y] - Functional acting on function y
 72
1
 11
4250.0
 21
-90.0
 31
0.0
100
AcDbText
 73
2
  0
LWPOLYLINE
  5
14B
330
17
100
AcDbEntity
  8
0
 62
7
100
AcDbPolyline
 90
4
 70
1
 10
4285.0
 20
-95.0
 10
4315.0
 20
-95.0
 10
4315.0
 20
-85.0
 10
4285.0
 20
-85.0
  0
TEXT
  5
14C
330
17
100
AcDbEntity
  8
0
 62
5
100
AcDbText
 10
4300.0
 20
-90.0
 30
0.0
 40
2.5
  1
F - Function of x, y, and y'
 72
1
 11
4300.0
 21
-90.0
 31
0.0
100
AcDbText
 73
2
  0
LWPOLYLINE
  5
14D
330
17
100
AcDbEntity
  8
0
 62
7
100
AcDbPolyline
 90
4
 70
1
 10
4335.0
 20
-95.0
 10
4365.0
 20
-95.0
 10
4365.0
 20
-85.0
 10
4335.0
 20
-85.0
  0
TEXT
  5
14E
330
17
100
AcDbEntity
  8
0
 62
5
100
AcDbText
 10
4350.0
 20
-90.0
 30
0.0
 40
2.5
  1
∂F/∂y - Partial derivative of F with respect to y
 72
1
 11
4350.0
 21
-90.0
 31
0.0
100
AcDbText
 73
2
  0
LWPOLYLINE
  5
14F
330
17
100
AcDbEntity
  8
0
 62
7
100
AcDbPolyline
 90
4
 70
1
 10
4385.0
 20
-95.0
 10
4415.0
 20
-95.0
 10
4415.0
 20
-85.0
 10
4385.0
 20
-85.0
  0
TEXT
  5
150
330
17
100
AcDbEntity
  8
0
 62
5
100
AcDbText
 10
4400.0
 20
-90.0
 30
0.0
 40
2.5
  1
∂F/∂y' - Partial derivative of F with respect to y'
 72
1
 11
4400.0
 21
-90.0
 31
0.0
100
AcDbText
 73
2
  0
LWPOLYLINE
  5
151
330
17
100
AcDbEntity
  8
0
 62
7
100
AcDbPolyline
 90
4
 70
1
 10
4435.0
 20
-95.0
 10
4465.0
 20
-95.0
 10
4465.0
 20
-85.0
 10
4435.0
 20
-85.0
  0
TEXT
  5
152
330
17
100
AcDbEntity
  8
0
 62
5
100
AcDbText
 10
4450.0
 20
-90.0
 30
0.0
 40
2.5
  1
d/dx - Total derivative with respect to x
 72
1
 11
4450.0
 21
-90.0
 31
0.0
100
AcDbText
 73
2
  0
LWPOLYLINE
  5
153
330
17
100
AcDbEntity
  8
0
 62
7
100
AcDbPolyline
 90
4
 70
1
 10
4535.0
 20
-65.0
 10
4565.0
 20
-65.0
 10
4565.0
 20
-55.0
 10
4535.0
 20
-55.0
  0
TEXT
  5
154
330
17
100
AcDbEntity
  8
0
 62
5
100
AcDbText
 10
4550.0
 20
-60.0
 30
0.0
 40
2.5
  1
Worked Examples
 72
1
 11
4550.0
 21
-60.0
 31
0.0
100
AcDbText
 73
2
  0
LWPOLYLINE
  5
155
330
17
100
AcDbEntity
  8
0
 62
7
100
AcDbPolyline
 90
4
 70
1
 10
4535.0
 20
-95.0
 10
4565.0
 20
-95.0
 10
4565.0
 20
-85.0
 10
4535.0
 20
-85.0
  0
TEXT
  5
156
330
17
100
AcDbEntity
  8
0
 62
5
100
AcDbText
 10
4550.0
 20
-90.0
 30
0.0
 40
2.5
  1
Example - Shortest path between two points (straight line)
 72
1
 11
4550.0
 21
-90.0
 31
0.0
100
AcDbText
 73
2
  0
LWPOLYLINE
  5
157
330
17
100
AcDbEntity
  8
0
 62
7
100
AcDbPolyline
 90
4
 70
1
 10
4485.0
 20
-125.0
 10
4515.0
 20
-125.0
 10
4515.0
 20
-115.0
 10
4485.0
 20
-115.0
  0
TEXT
  5
158
330
17
100
AcDbEntity
  8
0
 62
5
100
AcDbText
 10
4500.0
 20
-120.0
 30
0.0
 40
2.5
  1
Step 1 - Define functional for arc length: J[y] = ∫ sqrt(1 + (y')^2) dx
 72
1
 11
4500.0
 21
-120.0
 31
0.0
100
AcDbText
 73
2
  0
LWPOLYLINE
  5
159
330
17
100
AcDbEntity
  8
0
 62
7
100
AcDbPolyline
 90
4
 70
1
 10
4535.0
 20
-125.0
 10
4565.0
 20
-125.0
 10
4565.0
 20
-115.0
 10
4535.0
 20
-115.0
  0
TEXT
  5
15A
330
17
100
AcDbEntity
  8
0
 62
5
100
AcDbText
 10
4550.0
 20
-120.0
 30
0.0
 40
2.5
  1
Step 2 - Apply Euler-Lagrange equation
 72
1
 11
4550.0
 21
-120.0
 31
0.0
100
AcDbText
 73
2
  0
LWPOLYLINE
  5
15B
330
17
100
AcDbEntity
  8
0
 62
7
100
AcDbPolyline
 90
4
 70
1
 10
4585.0
 20
-125.0
 10
4615.0
 20
-125.0
 10
4615.0
 20
-115.0
 10
4585.0
 20
-115.0
  0
TEXT
  5
15C
330
17
100
AcDbEntity
  8
0
 62
5
100
AcDbText
 10
4600.0
 20
-120.0
 30
0.0
 40
2.5
  1
Step 3 - Resulting differential equation yields a linear solution y = mx + c
 72
1
 11
4600.0
 21
-120.0
 31
0.0
100
AcDbText
 73
2
  0
LWPOLYLINE
  5
15D
330
17
100
AcDbEntity
  8
0
 62
7
100
AcDbPolyline
 90
4
 70
1
 10
4710.0
 20
-65.0
 10
4740.0
 20
-65.0
 10
4740.0
 20
-55.0
 10
4710.0
 20
-55.0
  0
TEXT
  5
15E
330
17
100
AcDbEntity
  8
0
 62
5
100
AcDbText
 10
4725.0
 20
-60.0
 30
0.0
 40
2.5
  1
Metadata
 72
1
 11
4725.0
 21
-60.0
 31
0.0
100
AcDbText
 73
2
  0
LWPOLYLINE
  5
15F
330
17
100
AcDbEntity
  8
0
 62
7
100
AcDbPolyline
 90
4
 70
1
 10
4635.0
 20
-95.0
 10
4665.0
 20
-95.0
 10
4665.0
 20
-85.0
 10
4635.0
 20
-85.0
  0
TEXT
  5
160
330
17
100
AcDbEntity
  8
0
 62
5
100
AcDbText
 10
4650.0
 20
-90.0
 30
0.0
 40
2.5
  1
ComplexityLevel
 72
1
 11
4650.0
 21
-90.0
 31
0.0
100
AcDbText
 73
2
  0
LWPOLYLINE
  5
161
330
17
100
AcDbEntity
  8
0
 62
7
100
AcDbPolyline
 90
4
 70
1
 10
4685.0
 20
-95.0
 10
4715.0
 20
-95.0
 10
4715.0
 20
-85.0
 10
4685.0
 20
-85.0
  0
TEXT
  5
162
330
17
100
AcDbEntity
  8
0
 62
5
100
AcDbText
 10
4700.0
 20
-90.0
 30
0.0
 40
2.5
  1
LearningTime
 72
1
 11
4700.0
 21
-90.0
 31
0.0
100
AcDbText
 73
2
  0
LWPOLYLINE
  5
163
330
17
100
AcDbEntity
  8
0
 62
7
100
AcDbPolyline
 90
4
 70
1
 10
4735.0
 20
-95.0
 10
4765.0
 20
-95.0
 10
4765.0
 20
-85.0
 10
4735.0
 20
-85.0
  0
TEXT
  5
164
330
17
100
AcDbEntity
  8
0
 62
5
100
AcDbText
 10
4750.0
 20
-90.0
 30
0.0
 40
2.5
  1
PracticalApplication
 72
1
 11
4750.0
 21
-90.0
 31
0.0
100
AcDbText
 73
2
  0
LWPOLYLINE
  5
165
330
17
100
AcDbEntity
  8
0
 62
7
100
AcDbPolyline
 90
4
 70
1
 10
4785.0
 20
-95.0
 10
4815.0
 20
-95.0
 10
4815.0
 20
-85.0
 10
4785.0
 20
-85.0
  0
TEXT
  5
166
330
17
100
AcDbEntity
  8
0
 62
5
100
AcDbText
 10
4800.0
 20
-90.0
 30
0.0
 40
2.5
  1
VisualizationAvailable
 72
1
 11
4800.0
 21
-90.0
 31
0.0
100
AcDbText
 73
2
  0
LWPOLYLINE
  5
167
330
17
100
AcDbEntity
  8
0
 62
7
100
AcDbPolyline
 90
4
 70
1
 10
4960.0
 20
-65.0
 10
4990.0
 20
-65.0
 10
4990.0
 20
-55.0
 10
4960.0
 20
-55.0
  0
TEXT
  5
168
330
17
100
AcDbEntity
  8
0
 62
5
100
AcDbText
 10
4975.0
 20
-60.0
 30
0.0
 40
2.5
  1
CrossReference
 72
1
 11
4975.0
 21
-60.0
 31
0.0
100
AcDbText
 73
2
  0
LWPOLYLINE
  5
169
330
17
100
AcDbEntity
  8
0
 62
7
100
AcDbPolyline
 90
4
 70
1
 10
4860.0
 20
-95.0
 10
4890.0
 20
-95.0
 10
4890.0
 20
-85.0
 10
4860.0
 20
-85.0
  0
TEXT
  5
16A
330
17
100
AcDbEntity
  8
0
 62
5
100
AcDbText
 10
4875.0
 20
-90.0
 30
0.0
 40
2.5
  1
Prerequisites
 72
1
 11
4875.0
 21
-90.0
 31
0.0
100
AcDbText
 73
2
  0
LWPOLYLINE
  5
16B
330
17
100
AcDbEntity
  8
0
 62
7
100
AcDbPolyline
 90
4
 70
1
 10
4835.0
 20
-125.0
 10
4865.0
 20
-125.0
 10
4865.0
 20
-115.0
 10
4835.0
 20
-115.0
  0
TEXT
  5
16C
330
17
100
AcDbEntity
  8
0
 62
5
100
AcDbText
 10
4850.0
 20
-120.0
 30
0.0
 40
2.5
  1
Differentiation
 72
1
 11
4850.0
 21
-120.0
 31
0.0
100
AcDbText
 73
2
  0
LWPOLYLINE
  5
16D
330
17
100
AcDbEntity
  8
0
 62
7
100
AcDbPolyline
 90
4
 70
1
 10
4885.0
 20
-125.0
 10
4915.0
 20
-125.0
 10
4915.0
 20
-115.0
 10
4885.0
 20
-115.0
  0
TEXT
  5
16E
330
17
100
AcDbEntity
  8
0
 62
5
100
AcDbText
 10
4900.0
 20
-120.0
 30
0.0
 40
2.5
  1
Integration
 72
1
 11
4900.0
 21
-120.0
 31
0.0
100
AcDbText
 73
2
  0
LWPOLYLINE
  5
16F
330
17
100
AcDbEntity
  8
0
 62
7
100
AcDbPolyline
 90
4
 70
1
 10
4960.0
 20
-95.0
 10
4990.0
 20
-95.0
 10
4990.0
 20
-85.0
 10
4960.0
 20
-85.0
  0
TEXT
  5
170
330
17
100
AcDbEntity
  8
0
 62
5
100
AcDbText
 10
4975.0
 20
-90.0
 30
0.0
 40
2.5
  1
RelatedTopics
 72
1
 11
4975.0
 21
-90.0
 31
0.0
100
AcDbText
 73
2
  0
LWPOLYLINE
  5
171
330
17
100
AcDbEntity
  8
0
 62
7
100
AcDbPolyline
 90
4
 70
1
 10
4935.0
 20
-125.0
 10
4965.0
 20
-125.0
 10
4965.0
 20
-115.0
 10
4935.0
 20
-115.0
  0
TEXT
  5
172
330
17
100
AcDbEntity
  8
0
 62
5
100
AcDbText
 10
4950.0
 20
-120.0
 30
0.0
 40
2.5
  1
Optimization
 72
1
 11
4950.0
 21
-120.0
 31
0.0
100
AcDbText
 73
2
  0
LWPOLYLINE
  5
173
330
17
100
AcDbEntity
  8
0
 62
7
100
AcDbPolyline
 90
4
 70
1
 10
4985.0
 20
-125.0
 10
5015.0
 20
-125.0
 10
5015.0
 20
-115.0
 10
4985.0
 20
-115.0
  0
TEXT
  5
174
330
17
100
AcDbEntity
  8
0
 62
5
100
AcDbText
 10
5000.0
 20
-120.0
 30
0.0
 40
2.5
  1
Lagrangian Mechanics
 72
1
 11
5000.0
 21
-120.0
 31
0.0
100
AcDbText
 73
2
  0
LWPOLYLINE
  5
175
330
17
100
AcDbEntity
  8
0
 62
7
100
AcDbPolyline
 90
4
 70
1
 10
5060.0
 20
-95.0
 10
5090.0
 20
-95.0
 10
5090.0
 20
-85.0
 10
5060.0
 20
-85.0
  0
TEXT
  5
176
330
17
100
AcDbEntity
  8
0
 62
5
100
AcDbText
 10
5075.0
 20
-90.0
 30
0.0
 40
2.5
  1
ProgressionPath
 72
1
 11
5075.0
 21
-90.0
 31
0.0
100
AcDbText
 73
2
  0
LWPOLYLINE
  5
177
330
17
100
AcDbEntity
  8
0
 62
7
100
AcDbPolyline
 90
4
 70
1
 10
5035.0
 20
-125.0
 10
5065.0
 20
-125.0
 10
5065.0
 20
-115.0
 10
5035.0
 20
-115.0
  0
TEXT
  5
178
330
17
100
AcDbEntity
  8
0
 62
5
100
AcDbText
 10
5050.0
 20
-120.0
 30
0.0
 40
2.5
  1
Functional Analysis
 72
1
 11
5050.0
 21
-120.0
 31
0.0
100
AcDbText
 73
2
  0
LWPOLYLINE
  5
179
330
17
100
AcDbEntity
  8
0
 62
7
100
AcDbPolyline
 90
4
 70
1
 10
5085.0
 20
-125.0
 10
5115.0
 20
-125.0
 10
5115.0
 20
-115.0
 10
5085.0
 20
-115.0
  0
TEXT
  5
17A
330
17
100
AcDbEntity
  8
0
 62
5
100
AcDbText
 10
5100.0
 20
-120.0
 30
0.0
 40
2.5
  1
Differential Equations
 72
1
 11
5100.0
 21
-120.0
 31
0.0
100
AcDbText
 73
2
  0
LINE
  5
17B
330
17
100
AcDbEntity
  8
0
 62
3
100
AcDbLine
 10
2362.0
 20
-5.0
 30
0.0
 11
250.0
 21
-25.0
 31
0.0
  0
LINE
  5
17C
330
17
100
AcDbEntity
  8
0
 62
3
100
AcDbLine
 10
250.0
 20
-35.0
 30
0.0
 11
50.0
 21
-55.0
 31
0.0
  0
LINE
  5
17D
330
17
100
AcDbEntity
  8
0
 62
3
100
AcDbLine
 10
50.0
 20
-65.0
 30
0.0
 11
0.0
 21
-85.0
 31
0.0
  0
LINE
  5
17E
330
17
100
AcDbEntity
  8
0
 62
3
100
AcDbLine
 10
50.0
 20
-65.0
 30
0.0
 11
50.0
 21
-85.0
 31
0.0
  0
LINE
  5
17F
330
17
100
AcDbEntity
  8
0
 62
3
100
AcDbLine
 10
50.0
 20
-65.0
 30
0.0
 11
100.0
 21
-85.0
 31
0.0
  0
LINE
  5
180
330
17
100
AcDbEntity
  8
0
 62
3
100
AcDbLine
 10
250.0
 20
-35.0
 30
0.0
 11
200.0
 21
-55.0
 31
0.0
  0
LINE
  5
181
330
17
100
AcDbEntity
  8
0
 62
3
100
AcDbLine
 10
200.0
 20
-65.0
 30
0.0
 11
150.0
 21
-85.0
 31
0.0
  0
LINE
  5
182
330
17
100
AcDbEntity
  8
0
 62
3
100
AcDbLine
 10
200.0
 20
-65.0
 30
0.0
 11
200.0
 21
-85.0
 31
0.0
  0
LINE
  5
183
330
17
100
AcDbEntity
  8
0
 62
3
100
AcDbLine
 10
200.0
 20
-65.0
 30
0.0
 11
250.0
 21
-85.0
 31
0.0
  0
LINE
  5
184
330
17
100
AcDbEntity
  8
0
 62
3
100
AcDbLine
 10
250.0
 20
-35.0
 30
0.0
 11
325.0
 21
-55.0
 31
0.0
  0
LINE
  5
185
330
17
100
AcDbEntity
  8
0
 62
3
100
AcDbLine
 10
325.0
 20
-65.0
 30
0.0
 11
300.0
 21
-85.0
 31
0.0
  0
LINE
  5
186
330
17
100
AcDbEntity
  8
0
 62
3
100
AcDbLine
 10
325.0
 20
-65.0
 30
0.0
 11
350.0
 21
-85.0
 31
0.0
  0
LINE
  5
187
330
17
100
AcDbEntity
  8
0
 62
3
100
AcDbLine
 10
250.0
 20
-35.0
 30
0.0
 11
450.0
 21
-55.0
 31
0.0
  0
LINE
  5
188
330
17
100
AcDbEntity
  8
0
 62
3
100
AcDbLine
 10
450.0
 20
-65.0
 30
0.0
 11
400.0
 21
-85.0
 31
0.0
  0
LINE
  5
189
330
17
100
AcDbEntity
  8
0
 62
3
100
AcDbLine
 10
450.0
 20
-65.0
 30
0.0
 11
450.0
 21
-85.0
 31
0.0
  0
LINE
  5
18A
330
17
100
AcDbEntity
  8
0
 62
3
100
AcDbLine
 10
450.0
 20
-65.0
 30
0.0
 11
500.0
 21
-85.0
 31
0.0
  0
LINE
  5
18B
330
17
100
AcDbEntity
  8
0
 62
3
100
AcDbLine
 10
2362.0
 20
-5.0
 30
0.0
 11
600.0
 21
-25.0
 31
0.0
  0
LINE
  5
18C
330
17
100
AcDbEntity
  8
0
 62
3
100
AcDbLine
 10
600.0
 20
-35.0
 30
0.0
 11
550.0
 21
-55.0
 31
0.0
  0
LINE
  5
18D
330
17
100
AcDbEntity
  8
0
 62
3
100
AcDbLine
 10
550.0
 20
-65.0
 30
0.0
 11
550.0
 21
-85.0
 31
0.0
  0
LINE
  5
18E
330
17
100
AcDbEntity
  8
0
 62
3
100
AcDbLine
 10
600.0
 20
-35.0
 30
0.0
 11
600.0
 21
-55.0
 31
0.0
  0
LINE
  5
18F
330
17
100
AcDbEntity
  8
0
 62
3
100
AcDbLine
 10
600.0
 20
-65.0
 30
0.0
 11
600.0
 21
-85.0
 31
0.0
  0
LINE
  5
190
330
17
100
AcDbEntity
  8
0
 62
3
100
AcDbLine
 10
600.0
 20
-35.0
 30
0.0
 11
650.0
 21
-55.0
 31
0.0
  0
LINE
  5
191
330
17
100
AcDbEntity
  8
0
 62
3
100
AcDbLine
 10
650.0
 20
-65.0
 30
0.0
 11
650.0
 21
-85.0
 31
0.0
  0
LINE
  5
192
330
17
100
AcDbEntity
  8
0
 62
3
100
AcDbLine
 10
2362.0
 20
-5.0
 30
0.0
 11
800.0
 21
-25.0
 31
0.0
  0
LINE
  5
193
330
17
100
AcDbEntity
  8
0
 62
3
100
AcDbLine
 10
800.0
 20
-35.0
 30
0.0
 11
700.0
 21
-55.0
 31
0.0
  0
LINE
  5
194
330
17
100
AcDbEntity
  8
0
 62
3
100
AcDbLine
 10
800.0
 20
-35.0
 30
0.0
 11
750.0
 21
-55.0
 31
0.0
  0
LINE
  5
195
330
17
100
AcDbEntity
  8
0
 62
3
100
AcDbLine
 10
800.0
 20
-35.0
 30
0.0
 11
800.0
 21
-55.0
 31
0.0
  0
LINE
  5
196
330
17
100
AcDbEntity
  8
0
 62
3
100
AcDbLine
 10
800.0
 20
-35.0
 30
0.0
 11
850.0
 21
-55.0
 31
0.0
  0
LINE
  5
197
330
17
100
AcDbEntity
  8
0
 62
3
100
AcDbLine
 10
800.0
 20
-35.0
 30
0.0
 11
900.0
 21
-55.0
 31
0.0
  0
LINE
  5
198
330
17
100
AcDbEntity
  8
0
 62
3
100
AcDbLine
 10
2362.0
 20
-5.0
 30
0.0
 11
1025.0
 21
-25.0
 31
0.0
  0
LINE
  5
199
330
17
100
AcDbEntity
  8
0
 62
3
100
AcDbLine
 10
1025.0
 20
-35.0
 30
0.0
 11
950.0
 21
-55.0
 31
0.0
  0
LINE
  5
19A
330
17
100
AcDbEntity
  8
0
 62
3
100
AcDbLine
 10
1025.0
 20
-35.0
 30
0.0
 11
1000.0
 21
-55.0
 31
0.0
  0
LINE
  5
19B
330
17
100
AcDbEntity
  8
0
 62
3
100
AcDbLine
 10
1025.0
 20
-35.0
 30
0.0
 11
1050.0
 21
-55.0
 31
0.0
  0
LINE
  5
19C
330
17
100
AcDbEntity
  8
0
 62
3
100
AcDbLine
 10
1025.0
 20
-35.0
 30
0.0
 11
1100.0
 21
-55.0
 31
0.0
  0
LINE
  5
19D
330
17
100
AcDbEntity
  8
0
 62
3
100
AcDbLine
 10
2362.0
 20
-5.0
 30
0.0
 11
1225.0
 21
-25.0
 31
0.0
  0
LINE
  5
19E
330
17
100
AcDbEntity
  8
0
 62
3
100
AcDbLine
 10
1225.0
 20
-35.0
 30
0.0
 11
1175.0
 21
-55.0
 31
0.0
  0
LINE
  5
19F
330
17
100
AcDbEntity
  8
0
 62
3
100
AcDbLine
 10
1175.0
 20
-65.0
 30
0.0
 11
1150.0
 21
-85.0
 31
0.0
  0
LINE
  5
1A0
330
17
100
AcDbEntity
  8
0
 62
3
100
AcDbLine
 10
1175.0
 20
-65.0
 30
0.0
 11
1200.0
 21
-85.0
 31
0.0
  0
LINE
  5
1A1
330
17
100
AcDbEntity
  8
0
 62
3
100
AcDbLine
 10
1225.0
 20
-35.0
 30
0.0
 11
1275.0
 21
-55.0
 31
0.0
  0
LINE
  5
1A2
330
17
100
AcDbEntity
  8
0
 62
3
100
AcDbLine
 10
1275.0
 20
-65.0
 30
0.0
 11
1250.0
 21
-85.0
 31
0.0
  0
LINE
  5
1A3
330
17
100
AcDbEntity
  8
0
 62
3
100
AcDbLine
 10
1275.0
 20
-65.0
 30
0.0
 11
1300.0
 21
-85.0
 31
0.0
  0
LINE
  5
1A4
330
17
100
AcDbEntity
  8
0
 62
3
100
AcDbLine
 10
2362.0
 20
-5.0
 30
0.0
 11
1425.0
 21
-25.0
 31
0.0
  0
LINE
  5
1A5
330
17
100
AcDbEntity
  8
0
 62
3
100
AcDbLine
 10
1425.0
 20
-35.0
 30
0.0
 11
1350.0
 21
-55.0
 31
0.0
  0
LINE
  5
1A6
330
17
100
AcDbEntity
  8
0
 62
3
100
AcDbLine
 10
1425.0
 20
-35.0
 30
0.0
 11
1400.0
 21
-55.0
 31
0.0
  0
LINE
  5
1A7
330
17
100
AcDbEntity
  8
0
 62
3
100
AcDbLine
 10
1425.0
 20
-35.0
 30
0.0
 11
1450.0
 21
-55.0
 31
0.0
  0
LINE
  5
1A8
330
17
100
AcDbEntity
  8
0
 62
3
100
AcDbLine
 10
1425.0
 20
-35.0
 30
0.0
 11
1500.0
 21
-55.0
 31
0.0
  0
LINE
  5
1A9
330
17
100
AcDbEntity
  8
0
 62
3
100
AcDbLine
 10
2362.0
 20
-5.0
 30
0.0
 11
1675.0
 21
-25.0
 31
0.0
  0
LINE
  5
1AA
330
17
100
AcDbEntity
  8
0
 62
3
100
AcDbLine
 10
1675.0
 20
-35.0
 30
0.0
 11
1575.0
 21
-55.0
 31
0.0
  0
LINE
  5
1AB
330
17
100
AcDbEntity
  8
0
 62
3
100
AcDbLine
 10
1575.0
 20
-65.0
 30
0.0
 11
1550.0
 21
-85.0
 31
0.0
  0
LINE
  5
1AC
330
17
100
AcDbEntity
  8
0
 62
3
100
AcDbLine
 10
1575.0
 20
-65.0
 30
0.0
 11
1600.0
 21
-85.0
 31
0.0
  0
LINE
  5
1AD
330
17
100
AcDbEntity
  8
0
 62
3
100
AcDbLine
 10
1675.0
 20
-35.0
 30
0.0
 11
1675.0
 21
-55.0
 31
0.0
  0
LINE
  5
1AE
330
17
100
AcDbEntity
  8
0
 62
3
100
AcDbLine
 10
1675.0
 20
-65.0
 30
0.0
 11
1650.0
 21
-85.0
 31
0.0
  0
LINE
  5
1AF
330
17
100
AcDbEntity
  8
0
 62
3
100
AcDbLine
 10
1675.0
 20
-65.0
 30
0.0
 11
1700.0
 21
-85.0
 31
0.0
  0
LINE
  5
1B0
330
17
100
AcDbEntity
  8
0
 62
3
100
AcDbLine
 10
1675.0
 20
-35.0
 30
0.0
 11
1775.0
 21
-55.0
 31
0.0
  0
LINE
  5
1B1
330
17
100
AcDbEntity
  8
0
 62
3
100
AcDbLine
 10
1775.0
 20
-65.0
 30
0.0
 11
1750.0
 21
-85.0
 31
0.0
  0
LINE
  5
1B2
330
17
100
AcDbEntity
  8
0
 62
3
100
AcDbLine
 10
1775.0
 20
-65.0
 30
0.0
 11
1800.0
 21
-85.0
 31
0.0
  0
LINE
  5
1B3
330
17
100
AcDbEntity
  8
0
 62
3
100
AcDbLine
 10
2362.0
 20
-5.0
 30
0.0
 11
2268.0
 21
-25.0
 31
0.0
  0
LINE
  5
1B4
330
17
100
AcDbEntity
  8
0
 62
3
100
AcDbLine
 10
2268.0
 20
-35.0
 30
0.0
 11
1900.0
 21
-55.0
 31
0.0
  0
LINE
  5
1B5
330
17
100
AcDbEntity
  8
0
 62
3
100
AcDbLine
 10
1900.0
 20
-65.0
 30
0.0
 11
1900.0
 21
-85.0
 31
0.0
  0
LINE
  5
1B6
330
17
100
AcDbEntity
  8
0
 62
3
100
AcDbLine
 10
1900.0
 20
-95.0
 30
0.0
 11
1850.0
 21
-115.0
 31
0.0
  0
LINE
  5
1B7
330
17
100
AcDbEntity
  8
0
 62
3
100
AcDbLine
 10
1900.0
 20
-95.0
 30
0.0
 11
1900.0
 21
-115.0
 31
0.0
  0
LINE
  5
1B8
330
17
100
AcDbEntity
  8
0
 62
3
100
AcDbLine
 10
1900.0
 20
-95.0
 30
0.0
 11
1950.0
 21
-115.0
 31
0.0
  0
LINE
  5
1B9
330
17
100
AcDbEntity
  8
0
 62
3
100
AcDbLine
 10
2268.0
 20
-35.0
 30
0.0
 11
2025.0
 21
-55.0
 31
0.0
  0
LINE
  5
1BA
330
17
100
AcDbEntity
  8
0
 62
3
100
AcDbLine
 10
2025.0
 20
-65.0
 30
0.0
 11
2000.0
 21
-85.0
 31
0.0
  0
LINE
  5
1BB
330
17
100
AcDbEntity
  8
0
 62
3
100
AcDbLine
 10
2000.0
 20
-95.0
 30
0.0
 11
2000.0
 21
-115.0
 31
0.0
  0
LINE
  5
1BC
330
17
100
AcDbEntity
  8
0
 62
3
100
AcDbLine
 10
2025.0
 20
-65.0
 30
0.0
 11
2050.0
 21
-85.0
 31
0.0
  0
LINE
  5
1BD
330
17
100
AcDbEntity
  8
0
 62
3
100
AcDbLine
 10
2050.0
 20
-95.0
 30
0.0
 11
2050.0
 21
-115.0
 31
0.0
  0
LINE
  5
1BE
330
17
100
AcDbEntity
  8
0
 62
3
100
AcDbLine
 10
2268.0
 20
-35.0
 30
0.0
 11
2150.0
 21
-55.0
 31
0.0
  0
LINE
  5
1BF
330
17
100
AcDbEntity
  8
0
 62
3
100
AcDbLine
 10
2150.0
 20
-65.0
 30
0.0
 11
2100.0
 21
-85.0
 31
0.0
  0
LINE
  5
1C0
330
17
100
AcDbEntity
  8
0
 62
3
100
AcDbLine
 10
2150.0
 20
-65.0
 30
0.0
 11
2150.0
 21
-85.0
 31
0.0
  0
LINE
  5
1C1
330
17
100
AcDbEntity
  8
0
 62
3
100
AcDbLine
 10
2150.0
 20
-65.0
 30
0.0
 11
2200.0
 21
-85.0
 31
0.0
  0
LINE
  5
1C2
330
17
100
AcDbEntity
  8
0
 62
3
100
AcDbLine
 10
2268.0
 20
-35.0
 30
0.0
 11
2275.0
 21
-55.0
 31
0.0
  0
LINE
  5
1C3
330
17
100
AcDbEntity
  8
0
 62
3
100
AcDbLine
 10
2275.0
 20
-65.0
 30
0.0
 11
2275.0
 21
-85.0
 31
0.0
  0
LINE
  5
1C4
330
17
100
AcDbEntity
  8
0
 62
3
100
AcDbLine
 10
2275.0
 20
-95.0
 30
0.0
 11
2250.0
 21
-115.0
 31
0.0
  0
LINE
  5
1C5
330
17
100
AcDbEntity
  8
0
 62
3
100
AcDbLine
 10
2275.0
 20
-95.0
 30
0.0
 11
2300.0
 21
-115.0
 31
0.0
  0
LINE
  5
1C6
330
17
100
AcDbEntity
  8
0
 62
3
100
AcDbLine
 10
2268.0
 20
-35.0
 30
0.0
 11
2425.0
 21
-55.0
 31
0.0
  0
LINE
  5
1C7
330
17
100
AcDbEntity
  8
0
 62
3
100
AcDbLine
 10
2425.0
 20
-65.0
 30
0.0
 11
2350.0
 21
-85.0
 31
0.0
  0
LINE
  5
1C8
330
17
100
AcDbEntity
  8
0
 62
3
100
AcDbLine
 10
2425.0
 20
-65.0
 30
0.0
 11
2400.0
 21
-85.0
 31
0.0
  0
LINE
  5
1C9
330
17
100
AcDbEntity
  8
0
 62
3
100
AcDbLine
 10
2425.0
 20
-65.0
 30
0.0
 11
2450.0
 21
-85.0
 31
0.0
  0
LINE
  5
1CA
330
17
100
AcDbEntity
  8
0
 62
3
100
AcDbLine
 10
2425.0
 20
-65.0
 30
0.0
 11
2500.0
 21
-85.0
 31
0.0
  0
LINE
  5
1CB
330
17
100
AcDbEntity
  8
0
 62
3
100
AcDbLine
 10
2268.0
 20
-35.0
 30
0.0
 11
2637.0
 21
-55.0
 31
0.0
  0
LINE
  5
1CC
330
17
100
AcDbEntity
  8
0
 62
3
100
AcDbLine
 10
2637.0
 20
-65.0
 30
0.0
 11
2550.0
 21
-85.0
 31
0.0
  0
LINE
  5
1CD
330
17
100
AcDbEntity
  8
0
 62
3
100
AcDbLine
 10
2550.0
 20
-95.0
 30
0.0
 11
2550.0
 21
-115.0
 31
0.0
  0
LINE
  5
1CE
330
17
100
AcDbEntity
  8
0
 62
3
100
AcDbLine
 10
2637.0
 20
-65.0
 30
0.0
 11
2625.0
 21
-85.0
 31
0.0
  0
LINE
  5
1CF
330
17
100
AcDbEntity
  8
0
 62
3
100
AcDbLine
 10
2625.0
 20
-95.0
 30
0.0
 11
2600.0
 21
-115.0
 31
0.0
  0
LINE
  5
1D0
330
17
100
AcDbEntity
  8
0
 62
3
100
AcDbLine
 10
2625.0
 20
-95.0
 30
0.0
 11
2650.0
 21
-115.0
 31
0.0
  0
LINE
  5
1D1
330
17
100
AcDbEntity
  8
0
 62
3
100
AcDbLine
 10
2637.0
 20
-65.0
 30
0.0
 11
2725.0
 21
-85.0
 31
0.0
  0
LINE
  5
1D2
330
17
100
AcDbEntity
  8
0
 62
3
100
AcDbLine
 10
2725.0
 20
-95.0
 30
0.0
 11
2700.0
 21
-115.0
 31
0.0
  0
LINE
  5
1D3
330
17
100
AcDbEntity
  8
0
 62
3
100
AcDbLine
 10
2725.0
 20
-95.0
 30
0.0
 11
2750.0
 21
-115.0
 31
0.0
  0
LINE
  5
1D4
330
17
100
AcDbEntity
  8
0
 62
3
100
AcDbLine
 10
2362.0
 20
-5.0
 30
0.0
 11
3262.0
 21
-25.0
 31
0.0
  0
LINE
  5
1D5
330
17
100
AcDbEntity
  8
0
 62
3
100
AcDbLine
 10
3262.0
 20
-35.0
 30
0.0
 11
2850.0
 21
-55.0
 31
0.0
  0
LINE
  5
1D6
330
17
100
AcDbEntity
  8
0
 62
3
100
AcDbLine
 10
2850.0
 20
-65.0
 30
0.0
 11
2850.0
 21
-85.0
 31
0.0
  0
LINE
  5
1D7
330
17
100
AcDbEntity
  8
0
 62
3
100
AcDbLine
 10
2850.0
 20
-95.0
 30
0.0
 11
2800.0
 21
-115.0
 31
0.0
  0
LINE
  5
1D8
330
17
100
AcDbEntity
  8
0
 62
3
100
AcDbLine
 10
2850.0
 20
-95.0
 30
0.0
 11
2850.0
 21
-115.0
 31
0.0
  0
LINE
  5
1D9
330
17
100
AcDbEntity
  8
0
 62
3
100
AcDbLine
 10
2850.0
 20
-95.0
 30
0.0
 11
2900.0
 21
-115.0
 31
0.0
  0
LINE
  5
1DA
330
17
100
AcDbEntity
  8
0
 62
3
100
AcDbLine
 10
3262.0
 20
-35.0
 30
0.0
 11
2975.0
 21
-55.0
 31
0.0
  0
LINE
  5
1DB
330
17
100
AcDbEntity
  8
0
 62
3
100
AcDbLine
 10
2975.0
 20
-65.0
 30
0.0
 11
2950.0
 21
-85.0
 31
0.0
  0
LINE
  5
1DC
330
17
100
AcDbEntity
  8
0
 62
3
100
AcDbLine
 10
2950.0
 20
-95.0
 30
0.0
 11
2950.0
 21
-115.0
 31
0.0
  0
LINE
  5
1DD
330
17
100
AcDbEntity
  8
0
 62
3
100
AcDbLine
 10
2975.0
 20
-65.0
 30
0.0
 11
3000.0
 21
-85.0
 31
0.0
  0
LINE
  5
1DE
330
17
100
AcDbEntity
  8
0
 62
3
100
AcDbLine
 10
3000.0
 20
-95.0
 30
0.0
 11
3000.0
 21
-115.0
 31
0.0
  0
LINE
  5
1DF
330
17
100
AcDbEntity
  8
0
 62
3
100
AcDbLine
 10
3262.0
 20
-35.0
 30
0.0
 11
3100.0
 21
-55.0
 31
0.0
  0
LINE
  5
1E0
330
17
100
AcDbEntity
  8
0
 62
3
100
AcDbLine
 10
3100.0
 20
-65.0
 30
0.0
 11
3050.0
 21
-85.0
 31
0.0
  0
LINE
  5
1E1
330
17
100
AcDbEntity
  8
0
 62
3
100
AcDbLine
 10
3100.0
 20
-65.0
 30
0.0
 11
3100.0
 21
-85.0
 31
0.0
  0
LINE
  5
1E2
330
17
100
AcDbEntity
  8
0
 62
3
100
AcDbLine
 10
3100.0
 20
-65.0
 30
0.0
 11
3150.0
 21
-85.0
 31
0.0
  0
LINE
  5
1E3
330
17
100
AcDbEntity
  8
0
 62
3
100
AcDbLine
 10
3262.0
 20
-35.0
 30
0.0
 11
3250.0
 21
-55.0
 31
0.0
  0
LINE
  5
1E4
330
17
100
AcDbEntity
  8
0
 62
3
100
AcDbLine
 10
3250.0
 20
-65.0
 30
0.0
 11
3250.0
 21
-85.0
 31
0.0
  0
LINE
  5
1E5
330
17
100
AcDbEntity
  8
0
 62
3
100
AcDbLine
 10
3250.0
 20
-95.0
 30
0.0
 11
3200.0
 21
-115.0
 31
0.0
  0
LINE
  5
1E6
330
17
100
AcDbEntity
  8
0
 62
3
100
AcDbLine
 10
3250.0
 20
-95.0
 30
0.0
 11
3250.0
 21
-115.0
 31
0.0
  0
LINE
  5
1E7
330
17
100
AcDbEntity
  8
0
 62
3
100
AcDbLine
 10
3250.0
 20
-95.0
 30
0.0
 11
3300.0
 21
-115.0
 31
0.0
  0
LINE
  5
1E8
330
17
100
AcDbEntity
  8
0
 62
3
100
AcDbLine
 10
3262.0
 20
-35.0
 30
0.0
 11
3425.0
 21
-55.0
 31
0.0
  0
LINE
  5
1E9
330
17
100
AcDbEntity
  8
0
 62
3
100
AcDbLine
 10
3425.0
 20
-65.0
 30
0.0
 11
3350.0
 21
-85.0
 31
0.0
  0
LINE
  5
1EA
330
17
100
AcDbEntity
  8
0
 62
3
100
AcDbLine
 10
3425.0
 20
-65.0
 30
0.0
 11
3400.0
 21
-85.0
 31
0.0
  0
LINE
  5
1EB
330
17
100
AcDbEntity
  8
0
 62
3
100
AcDbLine
 10
3425.0
 20
-65.0
 30
0.0
 11
3450.0
 21
-85.0
 31
0.0
  0
LINE
  5
1EC
330
17
100
AcDbEntity
  8
0
 62
3
100
AcDbLine
 10
3425.0
 20
-65.0
 30
0.0
 11
3500.0
 21
-85.0
 31
0.0
  0
LINE
  5
1ED
330
17
100
AcDbEntity
  8
0
 62
3
100
AcDbLine
 10
3262.0
 20
-35.0
 30
0.0
 11
3675.0
 21
-55.0
 31
0.0
  0
LINE
  5
1EE
330
17
100
AcDbEntity
  8
0
 62
3
100
AcDbLine
 10
3675.0
 20
-65.0
 30
0.0
 11
3575.0
 21
-85.0
 31
0.0
  0
LINE
  5
1EF
330
17
100
AcDbEntity
  8
0
 62
3
100
AcDbLine
 10
3575.0
 20
-95.0
 30
0.0
 11
3550.0
 21
-115.0
 31
0.0
  0
LINE
  5
1F0
330
17
100
AcDbEntity
  8
0
 62
3
100
AcDbLine
 10
3575.0
 20
-95.0
 30
0.0
 11
3600.0
 21
-115.0
 31
0.0
  0
LINE
  5
1F1
330
17
100
AcDbEntity
  8
0
 62
3
100
AcDbLine
 10
3675.0
 20
-65.0
 30
0.0
 11
3675.0
 21
-85.0
 31
0.0
  0
LINE
  5
1F2
330
17
100
AcDbEntity
  8
0
 62
3
100
AcDbLine
 10
3675.0
 20
-95.0
 30
0.0
 11
3650.0
 21
-115.0
 31
0.0
  0
LINE
  5
1F3
330
17
100
AcDbEntity
  8
0
 62
3
100
AcDbLine
 10
3675.0
 20
-95.0
 30
0.0
 11
3700.0
 21
-115.0
 31
0.0
  0
LINE
  5
1F4
330
17
100
AcDbEntity
  8
0
 62
3
100
AcDbLine
 10
3675.0
 20
-65.0
 30
0.0
 11
3775.0
 21
-85.0
 31
0.0
  0
LINE
  5
1F5
330
17
100
AcDbEntity
  8
0
 62
3
100
AcDbLine
 10
3775.0
 20
-95.0
 30
0.0
 11
3750.0
 21
-115.0
 31
0.0
  0
LINE
  5
1F6
330
17
100
AcDbEntity
  8
0
 62
3
100
AcDbLine
 10
3775.0
 20
-95.0
 30
0.0
 11
3800.0
 21
-115.0
 31
0.0
  0
LINE
  5
1F7
330
17
100
AcDbEntity
  8
0
 62
3
100
AcDbLine
 10
2362.0
 20
-5.0
 30
0.0
 11
4475.0
 21
-25.0
 31
0.0
  0
LINE
  5
1F8
330
17
100
AcDbEntity
  8
0
 62
3
100
AcDbLine
 10
4475.0
 20
-35.0
 30
0.0
 11
3975.0
 21
-55.0
 31
0.0
  0
LINE
  5
1F9
330
17
100
AcDbEntity
  8
0
 62
3
100
AcDbLine
 10
3975.0
 20
-65.0
 30
0.0
 11
3900.0
 21
-85.0
 31
0.0
  0
LINE
  5
1FA
330
17
100
AcDbEntity
  8
0
 62
3
100
AcDbLine
 10
3900.0
 20
-95.0
 30
0.0
 11
3850.0
 21
-115.0
 31
0.0
  0
LINE
  5
1FB
330
17
100
AcDbEntity
  8
0
 62
3
100
AcDbLine
 10
3900.0
 20
-95.0
 30
0.0
 11
3900.0
 21
-115.0
 31
0.0
  0
LINE
  5
1FC
330
17
100
AcDbEntity
  8
0
 62
3
100
AcDbLine
 10
3900.0
 20
-95.0
 30
0.0
 11
3950.0
 21
-115.0
 31
0.0
  0
LINE
  5
1FD
330
17
100
AcDbEntity
  8
0
 62
3
100
AcDbLine
 10
3975.0
 20
-65.0
 30
0.0
 11
4050.0
 21
-85.0
 31
0.0
  0
LINE
  5
1FE
330
17
100
AcDbEntity
  8
0
 62
3
100
AcDbLine
 10
4050.0
 20
-95.0
 30
0.0
 11
4000.0
 21
-115.0
 31
0.0
  0
LINE
  5
1FF
330
17
100
AcDbEntity
  8
0
 62
3
100
AcDbLine
 10
4050.0
 20
-95.0
 30
0.0
 11
4050.0
 21
-115.0
 31
0.0
  0
LINE
  5
200
330
17
100
AcDbEntity
  8
0
 62
3
100
AcDbLine
 10
4050.0
 20
-95.0
 30
0.0
 11
4100.0
 21
-115.0
 31
0.0
  0
LINE
  5
201
330
17
100
AcDbEntity
  8
0
 62
3
100
AcDbLine
 10
4475.0
 20
-35.0
 30
0.0
 11
4175.0
 21
-55.0
 31
0.0
  0
LINE
  5
202
330
17
100
AcDbEntity
  8
0
 62
3
100
AcDbLine
 10
4175.0
 20
-65.0
 30
0.0
 11
4150.0
 21
-85.0
 31
0.0
  0
LINE
  5
203
330
17
100
AcDbEntity
  8
0
 62
3
100
AcDbLine
 10
4150.0
 20
-95.0
 30
0.0
 11
4150.0
 21
-115.0
 31
0.0
  0
LINE
  5
204
330
17
100
AcDbEntity
  8
0
 62
3
100
AcDbLine
 10
4175.0
 20
-65.0
 30
0.0
 11
4200.0
 21
-85.0
 31
0.0
  0
LINE
  5
205
330
17
100
AcDbEntity
  8
0
 62
3
100
AcDbLine
 10
4200.0
 20
-95.0
 30
0.0
 11
4200.0
 21
-115.0
 31
0.0
  0
LINE
  5
206
330
17
100
AcDbEntity
  8
0
 62
3
100
AcDbLine
 10
4475.0
 20
-35.0
 30
0.0
 11
4350.0
 21
-55.0
 31
0.0
  0
LINE
  5
207
330
17
100
AcDbEntity
  8
0
 62
3
100
AcDbLine
 10
4350.0
 20
-65.0
 30
0.0
 11
4250.0
 21
-85.0
 31
0.0
  0
LINE
  5
208
330
17
100
AcDbEntity
  8
0
 62
3
100
AcDbLine
 10
4350.0
 20
-65.0
 30
0.0
 11
4300.0
 21
-85.0
 31
0.0
  0
LINE
  5
209
330
17
100
AcDbEntity
  8
0
 62
3
100
AcDbLine
 10
4350.0
 20
-65.0
 30
0.0
 11
4350.0
 21
-85.0
 31
0.0
  0
LINE
  5
20A
330
17
100
AcDbEntity
  8
0
 62
3
100
AcDbLine
 10
4350.0
 20
-65.0
 30
0.0
 11
4400.0
 21
-85.0
 31
0.0
  0
LINE
  5
20B
330
17
100
AcDbEntity
  8
0
 62
3
100
AcDbLine
 10
4350.0
 20
-65.0
 30
0.0
 11
4450.0
 21
-85.0
 31
0.0
  0
LINE
  5
20C
330
17
100
AcDbEntity
  8
0
 62
3
100
AcDbLine
 10
4475.0
 20
-35.0
 30
0.0
 11
4550.0
 21
-55.0
 31
0.0
  0
LINE
  5
20D
330
17
100
AcDbEntity
  8
0
 62
3
100
AcDbLine
 10
4550.0
 20
-65.0
 30
0.0
 11
4550.0
 21
-85.0
 31
0.0
  0
LINE
  5
20E
330
17
100
AcDbEntity
  8
0
 62
3
100
AcDbLine
 10
4550.0
 20
-95.0
 30
0.0
 11
4500.0
 21
-115.0
 31
0.0
  0
LINE
  5
20F
330
17
100
AcDbEntity
  8
0
 62
3
100
AcDbLine
 10
4550.0
 20
-95.0
 30
0.0
 11
4550.0
 21
-115.0
 31
0.0
  0
LINE
  5
210
330
17
100
AcDbEntity
  8
0
 62
3
100
AcDbLine
 10
4550.0
 20
-95.0
 30
0.0
 11
4600.0
 21
-115.0
 31
0.0
  0
LINE
  5
211
330
17
100
AcDbEntity
  8
0
 62
3
100
AcDbLine
 10
4475.0
 20
-35.0
 30
0.0
 11
4725.0
 21
-55.0
 31
0.0
  0
LINE
  5
212
330
17
100
AcDbEntity
  8
0
 62
3
100
AcDbLine
 10
4725.0
 20
-65.0
 30
0.0
 11
4650.0
 21
-85.0
 31
0.0
  0
LINE
  5
213
330
17
100
AcDbEntity
  8
0
 62
3
100
AcDbLine
 10
4725.0
 20
-65.0
 30
0.0
 11
4700.0
 21
-85.0
 31
0.0
  0
LINE
  5
214
330
17
100
AcDbEntity
  8
0
 62
3
100
AcDbLine
 10
4725.0
 20
-65.0
 30
0.0
 11
4750.0
 21
-85.0
 31
0.0
  0
LINE
  5
215
330
17
100
AcDbEntity
  8
0
 62
3
100
AcDbLine
 10
4725.0
 20
-65.0
 30
0.0
 11
4800.0
 21
-85.0
 31
0.0
  0
LINE
  5
216
330
17
100
AcDbEntity
  8
0
 62
3
100
AcDbLine
 10
4475.0
 20
-35.0
 30
0.0
 11
4975.0
 21
-55.0
 31
0.0
  0
LINE
  5
217
330
17
100
AcDbEntity
  8
0
 62
3
100
AcDbLine
 10
4975.0
 20
-65.0
 30
0.0
 11
4875.0
 21
-85.0
 31
0.0
  0
LINE
  5
218
330
17
100
AcDbEntity
  8
0
 62
3
100
AcDbLine
 10
4875.0
 20
-95.0
 30
0.0
 11
4850.0
 21
-115.0
 31
0.0
  0
LINE
  5
219
330
17
100
AcDbEntity
  8
0
 62
3
100
AcDbLine
 10
4875.0
 20
-95.0
 30
0.0
 11
4900.0
 21
-115.0
 31
0.0
  0
LINE
  5
21A
330
17
100
AcDbEntity
  8
0
 62
3
100
AcDbLine
 10
4975.0
 20
-65.0
 30
0.0
 11
4975.0
 21
-85.0
 31
0.0
  0
LINE
  5
21B
330
17
100
AcDbEntity
  8
0
 62
3
100
AcDbLine
 10
4975.0
 20
-95.0
 30
0.0
 11
4950.0
 21
-115.0
 31
0.0
  0
LINE
  5
21C
330
17
100
AcDbEntity
  8
0
 62
3
100
AcDbLine
 10
4975.0
 20
-95.0
 30
0.0
 11
5000.0
 21
-115.0
 31
0.0
  0
LINE
  5
21D
330
17
100
AcDbEntity
  8
0
 62
3
100
AcDbLine
 10
4975.0
 20
-65.0
 30
0.0
 11
5075.0
 21
-85.0
 31
0.0
  0
LINE
  5
21E
330
17
100
AcDbEntity
  8
0
 62
3
100
AcDbLine
 10
5075.0
 20
-95.0
 30
0.0
 11
5050.0
 21
-115.0
 31
0.0
  0
LINE
  5
21F
330
17
100
AcDbEntity
  8
0
 62
3
100
AcDbLine
 10
5075.0
 20
-95.0
 30
0.0
 11
5100.0
 21
-115.0
 31
0.0
  0
ENDSEC
  0
SECTION
  2
OBJECTS
  0
DICTIONARY
  5
A
330
0
100
AcDbDictionary
280
0
281
1
  3
ACAD_COLOR
350
B
  3
ACAD_GROUP
350
C
  3
ACAD_LAYOUT
350
D
  3
ACAD_MATERIAL
350
E
  3
ACAD_MLEADERSTYLE
350
F
  3
ACAD_MLINESTYLE
350
10
  3
ACAD_PLOTSETTINGS
350
11
  3
ACAD_PLOTSTYLENAME
350
12
  3
ACAD_SCALELIST
350
14
  3
ACAD_TABLESTYLE
350
15
  3
ACAD_VISUALSTYLE
350
16
  3
EZDXF_META
350
2D
  0
DICTIONARY
  5
B
330
A
100
AcDbDictionary
280
0
281
1
  0
DICTIONARY
  5
C
330
A
100
AcDbDictionary
280
0
281
1
  0
DICTIONARY
  5
D
330
A
100
AcDbDictionary
280
0
281
1
  3
Model
350
1A
  3
Layout1
350
1E
  0
DICTIONARY
  5
E
330
A
100
AcDbDictionary
280
0
281
1
  3
ByBlock
350
1F
  3
ByLayer
350
20
  3
Global
350
21
  0
DICTIONARY
  5
F
330
A
100
AcDbDictionary
280
0
281
1
  3
Standard
350
2C
  0
DICTIONARY
  5
10
330
A
100
AcDbDictionary
280
0
281
1
  3
Standard
350
22
  0
DICTIONARY
  5
11
330
A
100
AcDbDictionary
280
0
281
1
  0
ACDBDICTIONARYWDFLT
  5
12
330
A
100
AcDbDictionary
280
0
281
1
  3
Normal
350
13
100
AcDbDictionaryWithDefault
340
13
  0
ACDBPLACEHOLDER
  5
13
330
12
  0
DICTIONARY
  5
14
330
A
100
AcDbDictionary
280
0
281
1
  0
DICTIONARY
  5
15
330
A
100
AcDbDictionary
280
0
281
1
  0
DICTIONARY
  5
16
330
A
100
AcDbDictionary
280
0
281
1
  0
LAYOUT
  5
1A
330
D
100
AcDbPlotSettings
  1

  4
A3
  6

 40
7.5
 41
20.0
 42
7.5
 43
20.0
 44
420.0
 45
297.0
 46
0.0
 47
0.0
 48
0.0
 49
0.0
140
0.0
141
0.0
142
1.0
143
1.0
 70
1024
 72
1
 73
0
 74
5
  7

 75
16
 76
0
 77
2
 78
300
147
1.0
148
0.0
149
0.0
100
AcDbLayout
  1
Model
 70
1
 71
0
 10
0.0
 20
0.0
 11
420.0
 21
297.0
 12
0.0
 22
0.0
 32
0.0
 14
1e+20
 24
1e+20
 34
1e+20
 15
-1e+20
 25
-1e+20
 35
-1e+20
146
0.0
 13
0.0
 23
0.0
 33
0.0
 16
1.0
 26
0.0
 36
0.0
 17
0.0
 27
1.0
 37
0.0
 76
1
330
17
  0
LAYOUT
  5
1E
330
D
100
AcDbPlotSettings
  1

  4
A3
  6

 40
7.5
 41
20.0
 42
7.5
 43
20.0
 44
420.0
 45
297.0
 46
0.0
 47
0.0
 48
0.0
 49
0.0
140
0.0
141
0.0
142
1.0
143
1.0
 70
0
 72
1
 73
0
 74
5
  7

 75
16
 76
0
 77
2
 78
300
147
1.0
148
0.0
149
0.0
100
AcDbLayout
  1
Layout1
 70
1
 71
1
 10
0.0
 20
0.0
 11
420.0
 21
297.0
 12
0.0
 22
0.0
 32
0.0
 14
1e+20
 24
1e+20
 34
1e+20
 15
-1e+20
 25
-1e+20
 35
-1e+20
146
0.0
 13
0.0
 23
0.0
 33
0.0
 16
1.0
 26
0.0
 36
0.0
 17
0.0
 27
1.0
 37
0.0
 76
1
330
1B
  0
MATERIAL
  5
1F
102
{ACAD_REACTORS
330
E
102
}
330
E
100
AcDbMaterial
  1
ByBlock
  2

 70
0
 40
1.0
 71
1
 41
1.0
 91
-1023410177
 42
1.0
 72
1
  3

 73
1
 74
1
 75
1
 44
0.5
 73
0
 45
1.0
 46
1.0
 77
1
  4

 78
1
 79
1
170
1
 48
1.0
171
1
  6

172
1
173
1
174
1
140
1.0
141
1.0
175
1
  7

176
1
177
1
178
1
143
1.0
179
1
  8

270
1
271
1
272
1
145
1.0
146
1.0
273
1
  9

274
1
275
1
276
1
 42
1.0
 72
1
  3

 73
1
 74
1
 75
1
 94
63
  0
MATERIAL
  5
20
102
{ACAD_REACTORS
330
E
102
}
330
E
100
AcDbMaterial
  1
ByLayer
  2

 70
0
 40
1.0
 71
1
 41
1.0
 91
-1023410177
 42
1.0
 72
1
  3

 73
1
 74
1
 75
1
 44
0.5
 73
0
 45
1.0
 46
1.0
 77
1
  4

 78
1
 79
1
170
1
 48
1.0
171
1
  6

172
1
173
1
174
1
140
1.0
141
1.0
175
1
  7

176
1
177
1
178
1
143
1.0
179
1
  8

270
1
271
1
272
1
145
1.0
146
1.0
273
1
  9

274
1
275
1
276
1
 42
1.0
 72
1
  3

 73
1
 74
1
 75
1
 94
63
  0
MATERIAL
  5
21
102
{ACAD_REACTORS
330
E
102
}
330
E
100
AcDbMaterial
  1
Global
  2

 70
0
 40
1.0
 71
1
 41
1.0
 91
-1023410177
 42
1.0
 72
1
  3

 73
1
 74
1
 75
1
 44
0.5
 73
0
 45
1.0
 46
1.0
 77
1
  4

 78
1
 79
1
170
1
 48
1.0
171
1
  6

172
1
173
1
174
1
140
1.0
141
1.0
175
1
  7

176
1
177
1
178
1
143
1.0
179
1
  8

270
1
271
1
272
1
145
1.0
146
1.0
273
1
  9

274
1
275
1
276
1
 42
1.0
 72
1
  3

 73
1
 74
1
 75
1
 94
63
  0
MLINESTYLE
  5
22
102
{ACAD_REACTORS
330
10
102
}
330
10
100
AcDbMlineStyle
  2
Standard
 70
0
  3

 62
256
 51
90.0
 52
90.0
 71
2
 49
0.5
 62
256
  6
BYLAYER
 49
-0.5
 62
256
  6
BYLAYER
  0
MLEADERSTYLE
  5
2C
102
{ACAD_REACTORS
330
F
102
}
330
F
100
AcDbMLeaderStyle
179
2
170
2
171
1
172
0
 90
2
 40
0.0
 41
0.0
173
1
 91
-1056964608
 92
-2
290
1
 42
2.0
291
1
 43
8.0
  3
Standard
 44
4.0
300

342
29
174
1
175
1
176
0
178
1
 93
-1056964608
 45
4.0
292
0
297
0
 46
4.0
 94
-1056964608
 47
1.0
 49
1.0
140
1.0
294
1
141
0.0
177
0
142
1.0
295
0
296
0
143
3.75
271
0
272
9
273
9
  0
DICTIONARY
  5
2D
330
A
100
AcDbDictionary
281
1
  3
CREATED_BY_EZDXF
350
2E
  3
WRITTEN_BY_EZDXF
350
222
  0
DICTIONARYVAR
  5
2E
330
2D
100
DictionaryVariables
280
0
  1
1.3.4 @ 2025-03-30T00:07:31.295944+00:00
  0
DICTIONARYVAR
  5
222
330
2D
100
DictionaryVariables
280
0
  1
1.3.4 @ 2025-03-30T00:07:31.531669+00:00
  0
ENDSEC
  0
EOF
